<?xml version="1.0" standalone="no"?>
<!DOCTYPE svg PUBLIC "-//W3C//DTD SVG 1.1//EN" "http://www.w3.org/Graphics/SVG/1.1/DTD/svg11.dtd">
<svg version="1.1" width="1200" height="534" onload="init(evt)" viewBox="0 0 1200 534" xmlns="http://www.w3.org/2000/svg" xmlns:xlink="http://www.w3.org/1999/xlink">
<!-- Flame graph stack visualization. See https://github.com/brendangregg/FlameGraph for latest version, and http://www.brendangregg.com/flamegraphs.html for examples. -->
<!-- NOTES:  -->
<defs>
	<linearGradient id="background" y1="0" y2="1" x1="0" x2="0" >
		<stop stop-color="#eeeeee" offset="5%" />
		<stop stop-color="#eeeeb0" offset="95%" />
	</linearGradient>
</defs>
<style type="text/css">
	text { font-family:Verdana; font-size:12px; fill:rgb(0,0,0); }
	#search, #ignorecase { opacity:0.1; cursor:pointer; }
	#search:hover, #search.show, #ignorecase:hover, #ignorecase.show { opacity:1; }
	#subtitle { text-anchor:middle; font-color:rgb(160,160,160); }
	#title { text-anchor:middle; font-size:17px}
	#unzoom { cursor:pointer; }
	#frames > *:hover { stroke:black; stroke-width:0.5; cursor:pointer; }
	.hide { display:none; }
	.parent { opacity:0.5; }
</style>
<script type="text/ecmascript">
<![CDATA[
	"use strict";
	var details, searchbtn, unzoombtn, matchedtxt, svg, searching, currentSearchTerm, ignorecase, ignorecaseBtn;
	function init(evt) {
		details = document.getElementById("details").firstChild;
		searchbtn = document.getElementById("search");
		ignorecaseBtn = document.getElementById("ignorecase");
		unzoombtn = document.getElementById("unzoom");
		matchedtxt = document.getElementById("matched");
		svg = document.getElementsByTagName("svg")[0];
		searching = 0;
		currentSearchTerm = null;

		// use GET parameters to restore a flamegraphs state.
		var params = get_params();
		if (params.x && params.y)
			zoom(find_group(document.querySelector('[x="' + params.x + '"][y="' + params.y + '"]')));
                if (params.s) search(params.s);
	}

	// event listeners
	window.addEventListener("click", function(e) {
		var target = find_group(e.target);
		if (target) {
			if (target.nodeName == "a") {
				if (e.ctrlKey === false) return;
				e.preventDefault();
			}
			if (target.classList.contains("parent")) unzoom(true);
			zoom(target);
			if (!document.querySelector('.parent')) {
				// we have basically done a clearzoom so clear the url
				var params = get_params();
				if (params.x) delete params.x;
				if (params.y) delete params.y;
				history.replaceState(null, null, parse_params(params));
				unzoombtn.classList.add("hide");
				return;
			}

			// set parameters for zoom state
			var el = target.querySelector("rect");
			if (el && el.attributes && el.attributes.y && el.attributes._orig_x) {
				var params = get_params()
				params.x = el.attributes._orig_x.value;
				params.y = el.attributes.y.value;
				history.replaceState(null, null, parse_params(params));
			}
		}
		else if (e.target.id == "unzoom") clearzoom();
		else if (e.target.id == "search") search_prompt();
		else if (e.target.id == "ignorecase") toggle_ignorecase();
	}, false)

	// mouse-over for info
	// show
	window.addEventListener("mouseover", function(e) {
		var target = find_group(e.target);
		if (target) details.nodeValue = "Function: " + g_to_text(target);
	}, false)

	// clear
	window.addEventListener("mouseout", function(e) {
		var target = find_group(e.target);
		if (target) details.nodeValue = ' ';
	}, false)

	// ctrl-F for search
	// ctrl-I to toggle case-sensitive search
	window.addEventListener("keydown",function (e) {
		if (e.keyCode === 114 || (e.ctrlKey && e.keyCode === 70)) {
			e.preventDefault();
			search_prompt();
		}
		else if (e.ctrlKey && e.keyCode === 73) {
			e.preventDefault();
			toggle_ignorecase();
		}
	}, false)

	// functions
	function get_params() {
		var params = {};
		var paramsarr = window.location.search.substr(1).split('&');
		for (var i = 0; i < paramsarr.length; ++i) {
			var tmp = paramsarr[i].split("=");
			if (!tmp[0] || !tmp[1]) continue;
			params[tmp[0]]  = decodeURIComponent(tmp[1]);
		}
		return params;
	}
	function parse_params(params) {
		var uri = "?";
		for (var key in params) {
			uri += key + '=' + encodeURIComponent(params[key]) + '&';
		}
		if (uri.slice(-1) == "&")
			uri = uri.substring(0, uri.length - 1);
		if (uri == '?')
			uri = window.location.href.split('?')[0];
		return uri;
	}
	function find_child(node, selector) {
		var children = node.querySelectorAll(selector);
		if (children.length) return children[0];
	}
	function find_group(node) {
		var parent = node.parentElement;
		if (!parent) return;
		if (parent.id == "frames") return node;
		return find_group(parent);
	}
	function orig_save(e, attr, val) {
		if (e.attributes["_orig_" + attr] != undefined) return;
		if (e.attributes[attr] == undefined) return;
		if (val == undefined) val = e.attributes[attr].value;
		e.setAttribute("_orig_" + attr, val);
	}
	function orig_load(e, attr) {
		if (e.attributes["_orig_"+attr] == undefined) return;
		e.attributes[attr].value = e.attributes["_orig_" + attr].value;
		e.removeAttribute("_orig_"+attr);
	}
	function g_to_text(e) {
		var text = find_child(e, "title").firstChild.nodeValue;
		return (text)
	}
	function g_to_func(e) {
		var func = g_to_text(e);
		// if there's any manipulation we want to do to the function
		// name before it's searched, do it here before returning.
		return (func);
	}
	function update_text(e) {
		var r = find_child(e, "rect");
		var t = find_child(e, "text");
		var w = parseFloat(r.attributes.width.value) -3;
		var txt = find_child(e, "title").textContent.replace(/\([^(]*\)$/,"");
		t.attributes.x.value = parseFloat(r.attributes.x.value) + 3;

		// Smaller than this size won't fit anything
		if (w < 2 * 12 * 0.59) {
			t.textContent = "";
			return;
		}

		t.textContent = txt;
		var sl = t.getSubStringLength(0, txt.length);
		// check if only whitespace or if we can fit the entire string into width w
		if (/^ *$/.test(txt) || sl < w)
			return;

		// this isn't perfect, but gives a good starting point
		// and avoids calling getSubStringLength too often
		var start = Math.floor((w/sl) * txt.length);
		for (var x = start; x > 0; x = x-2) {
			if (t.getSubStringLength(0, x + 2) <= w) {
				t.textContent = txt.substring(0, x) + "..";
				return;
			}
		}
		t.textContent = "";
	}

	// zoom
	function zoom_reset(e) {
		if (e.attributes != undefined) {
			orig_load(e, "x");
			orig_load(e, "width");
		}
		if (e.childNodes == undefined) return;
		for (var i = 0, c = e.childNodes; i < c.length; i++) {
			zoom_reset(c[i]);
		}
	}
	function zoom_child(e, x, ratio) {
		if (e.attributes != undefined) {
			if (e.attributes.x != undefined) {
				orig_save(e, "x");
				e.attributes.x.value = (parseFloat(e.attributes.x.value) - x - 10) * ratio + 10;
				if (e.tagName == "text")
					e.attributes.x.value = find_child(e.parentNode, "rect[x]").attributes.x.value + 3;
			}
			if (e.attributes.width != undefined) {
				orig_save(e, "width");
				e.attributes.width.value = parseFloat(e.attributes.width.value) * ratio;
			}
		}

		if (e.childNodes == undefined) return;
		for (var i = 0, c = e.childNodes; i < c.length; i++) {
			zoom_child(c[i], x - 10, ratio);
		}
	}
	function zoom_parent(e) {
		if (e.attributes) {
			if (e.attributes.x != undefined) {
				orig_save(e, "x");
				e.attributes.x.value = 10;
			}
			if (e.attributes.width != undefined) {
				orig_save(e, "width");
				e.attributes.width.value = parseInt(svg.width.baseVal.value) - (10 * 2);
			}
		}
		if (e.childNodes == undefined) return;
		for (var i = 0, c = e.childNodes; i < c.length; i++) {
			zoom_parent(c[i]);
		}
	}
	function zoom(node) {
		var attr = find_child(node, "rect").attributes;
		var width = parseFloat(attr.width.value);
		var xmin = parseFloat(attr.x.value);
		var xmax = parseFloat(xmin + width);
		var ymin = parseFloat(attr.y.value);
		var ratio = (svg.width.baseVal.value - 2 * 10) / width;

		// XXX: Workaround for JavaScript float issues (fix me)
		var fudge = 0.0001;

		unzoombtn.classList.remove("hide");

		var el = document.getElementById("frames").children;
		for (var i = 0; i < el.length; i++) {
			var e = el[i];
			var a = find_child(e, "rect").attributes;
			var ex = parseFloat(a.x.value);
			var ew = parseFloat(a.width.value);
			var upstack;
			// Is it an ancestor
			if (0 == 0) {
				upstack = parseFloat(a.y.value) > ymin;
			} else {
				upstack = parseFloat(a.y.value) < ymin;
			}
			if (upstack) {
				// Direct ancestor
				if (ex <= xmin && (ex+ew+fudge) >= xmax) {
					e.classList.add("parent");
					zoom_parent(e);
					update_text(e);
				}
				// not in current path
				else
					e.classList.add("hide");
			}
			// Children maybe
			else {
				// no common path
				if (ex < xmin || ex + fudge >= xmax) {
					e.classList.add("hide");
				}
				else {
					zoom_child(e, xmin, ratio);
					update_text(e);
				}
			}
		}
		search();
	}
	function unzoom(dont_update_text) {
		unzoombtn.classList.add("hide");
		var el = document.getElementById("frames").children;
		for(var i = 0; i < el.length; i++) {
			el[i].classList.remove("parent");
			el[i].classList.remove("hide");
			zoom_reset(el[i]);
			if(!dont_update_text) update_text(el[i]);
		}
		search();
	}
	function clearzoom() {
		unzoom();

		// remove zoom state
		var params = get_params();
		if (params.x) delete params.x;
		if (params.y) delete params.y;
		history.replaceState(null, null, parse_params(params));
	}

	// search
	function toggle_ignorecase() {
		ignorecase = !ignorecase;
		if (ignorecase) {
			ignorecaseBtn.classList.add("show");
		} else {
			ignorecaseBtn.classList.remove("show");
		}
		reset_search();
		search();
	}
	function reset_search() {
		var el = document.querySelectorAll("#frames rect");
		for (var i = 0; i < el.length; i++) {
			orig_load(el[i], "fill")
		}
		var params = get_params();
		delete params.s;
		history.replaceState(null, null, parse_params(params));
	}
	function search_prompt() {
		if (!searching) {
			var term = prompt("Enter a search term (regexp " +
			    "allowed, eg: ^ext4_)"
			    + (ignorecase ? ", ignoring case" : "")
			    + "\nPress Ctrl-i to toggle case sensitivity", "");
			if (term != null) search(term);
		} else {
			reset_search();
			searching = 0;
			currentSearchTerm = null;
			searchbtn.classList.remove("show");
			searchbtn.firstChild.nodeValue = "Search"
			matchedtxt.classList.add("hide");
			matchedtxt.firstChild.nodeValue = ""
		}
	}
	function search(term) {
		if (term) currentSearchTerm = term;
		if (currentSearchTerm === null) return;

		var re = new RegExp(currentSearchTerm, ignorecase ? 'i' : '');
		var el = document.getElementById("frames").children;
		var matches = new Object();
		var maxwidth = 0;
		for (var i = 0; i < el.length; i++) {
			var e = el[i];
			var func = g_to_func(e);
			var rect = find_child(e, "rect");
			if (func == null || rect == null)
				continue;

			// Save max width. Only works as we have a root frame
			var w = parseFloat(rect.attributes.width.value);
			if (w > maxwidth)
				maxwidth = w;

			if (func.match(re)) {
				// highlight
				var x = parseFloat(rect.attributes.x.value);
				orig_save(rect, "fill");
				rect.attributes.fill.value = "rgb(230,0,230)";

				// remember matches
				if (matches[x] == undefined) {
					matches[x] = w;
				} else {
					if (w > matches[x]) {
						// overwrite with parent
						matches[x] = w;
					}
				}
				searching = 1;
			}
		}
		if (!searching)
			return;
		var params = get_params();
		params.s = currentSearchTerm;
		history.replaceState(null, null, parse_params(params));

		searchbtn.classList.add("show");
		searchbtn.firstChild.nodeValue = "Reset Search";

		// calculate percent matched, excluding vertical overlap
		var count = 0;
		var lastx = -1;
		var lastw = 0;
		var keys = Array();
		for (k in matches) {
			if (matches.hasOwnProperty(k))
				keys.push(k);
		}
		// sort the matched frames by their x location
		// ascending, then width descending
		keys.sort(function(a, b){
			return a - b;
		});
		// Step through frames saving only the biggest bottom-up frames
		// thanks to the sort order. This relies on the tree property
		// where children are always smaller than their parents.
		var fudge = 0.0001;	// JavaScript floating point
		for (var k in keys) {
			var x = parseFloat(keys[k]);
			var w = matches[keys[k]];
			if (x >= lastx + lastw - fudge) {
				count += w;
				lastx = x;
				lastw = w;
			}
		}
		// display matched percent
		matchedtxt.classList.remove("hide");
		var pct = 100 * count / maxwidth;
		if (pct != 100) pct = pct.toFixed(1)
		matchedtxt.firstChild.nodeValue = "Matched: " + pct + "%";
	}
]]>
</script>
<rect x="0.0" y="0" width="1200.0" height="534.0" fill="url(#background)"  />
<text id="title" x="600.00" y="24" >Flame Graph</text>
<text id="details" x="10.00" y="517" > </text>
<text id="unzoom" x="10.00" y="24" class="hide">Reset Zoom</text>
<text id="search" x="1090.00" y="24" >Search</text>
<text id="ignorecase" x="1174.00" y="24" >ic</text>
<text id="matched" x="1090.00" y="517" > </text>
<g id="frames">
<g >
<title>balance_dirty_pages_ratelimited_flags (20,109,375 samples, 1.25%)</title><rect x="560.8" y="149" width="14.8" height="15.0" fill="rgb(207,10,2)" rx="2" ry="2" />
<text  x="563.82" y="159.5" ></text>
</g>
<g >
<title>el0t_64_sync_handler (23,397,701 samples, 1.46%)</title><rect x="1125.2" y="437" width="17.3" height="15.0" fill="rgb(211,32,7)" rx="2" ry="2" />
<text  x="1128.22" y="447.5" ></text>
</g>
<g >
<title>__iomap_write_end (20,732,334 samples, 1.29%)</title><rect x="901.9" y="133" width="15.2" height="15.0" fill="rgb(214,45,10)" rx="2" ry="2" />
<text  x="904.87" y="143.5" ></text>
</g>
<g >
<title>el0t_64_sync (584,851,341 samples, 36.50%)</title><rect x="538.2" y="357" width="430.7" height="15.0" fill="rgb(217,56,13)" rx="2" ry="2" />
<text  x="541.18" y="367.5" >el0t_64_sync</text>
</g>
<g >
<title>[ld-linux-aarch64.so.1] (20,272,800 samples, 1.27%)</title><rect x="1007.2" y="453" width="14.9" height="15.0" fill="rgb(225,95,22)" rx="2" ry="2" />
<text  x="1010.20" y="463.5" ></text>
</g>
<g >
<title>[libc.so.6] (11,837,170 samples, 0.74%)</title><rect x="988.7" y="421" width="8.8" height="15.0" fill="rgb(223,84,20)" rx="2" ry="2" />
<text  x="991.74" y="431.5" ></text>
</g>
<g >
<title>_start (89,204,302 samples, 5.57%)</title><rect x="1059.5" y="453" width="65.7" height="15.0" fill="rgb(245,185,44)" rx="2" ry="2" />
<text  x="1062.53" y="463.5" >_start</text>
</g>
<g >
<title>vma_alloc_anon_folio_pmd (407,923,927 samples, 25.46%)</title><rect x="237.8" y="53" width="300.4" height="15.0" fill="rgb(229,114,27)" rx="2" ry="2" />
<text  x="240.78" y="63.5" >vma_alloc_anon_folio_pmd</text>
</g>
<g >
<title>[bash] (18,525,923 samples, 1.16%)</title><rect x="1088.9" y="101" width="13.7" height="15.0" fill="rgb(250,209,50)" rx="2" ry="2" />
<text  x="1091.91" y="111.5" ></text>
</g>
<g >
<title>__handle_mm_fault (437,997,844 samples, 27.33%)</title><rect x="215.6" y="85" width="322.6" height="15.0" fill="rgb(207,9,2)" rx="2" ry="2" />
<text  x="218.63" y="95.5" >__handle_mm_fault</text>
</g>
<g >
<title>execute_command (18,525,923 samples, 1.16%)</title><rect x="1088.9" y="181" width="13.7" height="15.0" fill="rgb(224,90,21)" rx="2" ry="2" />
<text  x="1091.91" y="191.5" ></text>
</g>
<g >
<title>load_elf_binary (23,397,701 samples, 1.46%)</title><rect x="1125.2" y="309" width="17.3" height="15.0" fill="rgb(223,83,20)" rx="2" ry="2" />
<text  x="1128.22" y="319.5" ></text>
</g>
<g >
<title>__arch_copy_from_user (316,937,816 samples, 19.78%)</title><rect x="575.6" y="133" width="233.4" height="15.0" fill="rgb(254,229,54)" rx="2" ry="2" />
<text  x="578.63" y="143.5" >__arch_copy_from_user</text>
</g>
<g >
<title>[bash] (12,476,229 samples, 0.78%)</title><rect x="1102.6" y="261" width="9.1" height="15.0" fill="rgb(250,209,50)" rx="2" ry="2" />
<text  x="1105.55" y="271.5" ></text>
</g>
<g >
<title>iomap_write_end (20,732,334 samples, 1.29%)</title><rect x="901.9" y="149" width="15.2" height="15.0" fill="rgb(242,171,41)" rx="2" ry="2" />
<text  x="904.87" y="159.5" ></text>
</g>
<g >
<title>write (584,851,341 samples, 36.50%)</title><rect x="538.2" y="373" width="430.7" height="15.0" fill="rgb(228,107,25)" rx="2" ry="2" />
<text  x="541.18" y="383.5" >write</text>
</g>
<g >
<title>stat (38,930,728 samples, 2.43%)</title><rect x="1161.3" y="469" width="28.7" height="15.0" fill="rgb(245,185,44)" rx="2" ry="2" />
<text  x="1164.33" y="479.5" >stat</text>
</g>
<g >
<title>[ld-linux-aarch64.so.1] (20,272,800 samples, 1.27%)</title><rect x="1007.2" y="421" width="14.9" height="15.0" fill="rgb(225,95,22)" rx="2" ry="2" />
<text  x="1010.20" y="431.5" ></text>
</g>
<g >
<title>[ld-linux-aarch64.so.1] (12,964,163 samples, 0.81%)</title><rect x="1042.8" y="389" width="9.5" height="15.0" fill="rgb(225,95,22)" rx="2" ry="2" />
<text  x="1045.76" y="399.5" ></text>
</g>
<g >
<title>el0_svc (11,837,170 samples, 0.74%)</title><rect x="988.7" y="293" width="8.8" height="15.0" fill="rgb(244,183,43)" rx="2" ry="2" />
<text  x="991.74" y="303.5" ></text>
</g>
<g >
<title>exit_mmap (23,223,769 samples, 1.45%)</title><rect x="1125.2" y="245" width="17.1" height="15.0" fill="rgb(236,143,34)" rx="2" ry="2" />
<text  x="1128.22" y="255.5" ></text>
</g>
<g >
<title>[bash] (18,525,923 samples, 1.16%)</title><rect x="1088.9" y="85" width="13.7" height="15.0" fill="rgb(250,209,50)" rx="2" ry="2" />
<text  x="1091.91" y="95.5" ></text>
</g>
<g >
<title>__arm64_sys_mprotect (13,224,702 samples, 0.83%)</title><rect x="997.5" y="245" width="9.7" height="15.0" fill="rgb(217,58,13)" rx="2" ry="2" />
<text  x="1000.46" y="255.5" ></text>
</g>
<g >
<title>__mmap (11,837,170 samples, 0.74%)</title><rect x="988.7" y="341" width="8.8" height="15.0" fill="rgb(227,104,25)" rx="2" ry="2" />
<text  x="991.74" y="351.5" ></text>
</g>
<g >
<title>[bash] (17,075,613 samples, 1.07%)</title><rect x="1068.1" y="309" width="12.6" height="15.0" fill="rgb(250,209,50)" rx="2" ry="2" />
<text  x="1071.09" y="319.5" ></text>
</g>
<g >
<title>el0_svc_common.constprop.0 (717,230,913 samples, 44.76%)</title><rect x="10.0" y="293" width="528.2" height="15.0" fill="rgb(224,89,21)" rx="2" ry="2" />
<text  x="13.00" y="303.5" >el0_svc_common.constprop.0</text>
</g>
<g >
<title>bprm_execve (23,397,701 samples, 1.46%)</title><rect x="1125.2" y="325" width="17.3" height="15.0" fill="rgb(218,61,14)" rx="2" ry="2" />
<text  x="1128.22" y="335.5" ></text>
</g>
<g >
<title>__mmap_region (11,837,170 samples, 0.74%)</title><rect x="988.7" y="149" width="8.8" height="15.0" fill="rgb(253,225,53)" rx="2" ry="2" />
<text  x="991.74" y="159.5" ></text>
</g>
<g >
<title>[ld-linux-aarch64.so.1] (13,224,702 samples, 0.83%)</title><rect x="997.5" y="389" width="9.7" height="15.0" fill="rgb(225,95,22)" rx="2" ry="2" />
<text  x="1000.46" y="399.5" ></text>
</g>
<g >
<title>el0t_64_sync_handler (717,230,913 samples, 44.76%)</title><rect x="10.0" y="341" width="528.2" height="15.0" fill="rgb(211,32,7)" rx="2" ry="2" />
<text  x="13.00" y="351.5" >el0t_64_sync_handler</text>
</g>
<g >
<title>do_el0_svc (11,837,170 samples, 0.74%)</title><rect x="988.7" y="277" width="8.8" height="15.0" fill="rgb(218,60,14)" rx="2" ry="2" />
<text  x="991.74" y="287.5" ></text>
</g>
<g >
<title>[bash] (12,476,229 samples, 0.78%)</title><rect x="1102.6" y="245" width="9.1" height="15.0" fill="rgb(250,209,50)" rx="2" ry="2" />
<text  x="1105.55" y="255.5" ></text>
</g>
<g >
<title>execute_command (18,525,923 samples, 1.16%)</title><rect x="1088.9" y="245" width="13.7" height="15.0" fill="rgb(224,90,21)" rx="2" ry="2" />
<text  x="1091.91" y="255.5" ></text>
</g>
<g >
<title>__arch_clear_user (717,230,913 samples, 44.76%)</title><rect x="10.0" y="213" width="528.2" height="15.0" fill="rgb(244,180,43)" rx="2" ry="2" />
<text  x="13.00" y="223.5" >__arch_clear_user</text>
</g>
<g >
<title>execute_command_internal (69,042,766 samples, 4.31%)</title><rect x="1068.1" y="357" width="50.8" height="15.0" fill="rgb(248,202,48)" rx="2" ry="2" />
<text  x="1071.09" y="367.5" >execu..</text>
</g>
<g >
<title>__libc_start_main (89,204,302 samples, 5.57%)</title><rect x="1059.5" y="437" width="65.7" height="15.0" fill="rgb(236,142,34)" rx="2" ry="2" />
<text  x="1062.53" y="447.5" >__libc_..</text>
</g>
<g >
<title>[dd] (1,311,511,178 samples, 81.85%)</title><rect x="10.0" y="405" width="965.8" height="15.0" fill="rgb(232,128,30)" rx="2" ry="2" />
<text  x="13.00" y="415.5" >[dd]</text>
</g>
<g >
<title>el0t_64_sync_handler (584,851,341 samples, 36.50%)</title><rect x="538.2" y="341" width="430.7" height="15.0" fill="rgb(211,32,7)" rx="2" ry="2" />
<text  x="541.18" y="351.5" >el0t_64_sync_handler</text>
</g>
<g >
<title>__arm64_sys_mmap (11,837,170 samples, 0.74%)</title><rect x="988.7" y="229" width="8.8" height="15.0" fill="rgb(231,119,28)" rx="2" ry="2" />
<text  x="991.74" y="239.5" ></text>
</g>
<g >
<title>execute_command (40,773,612 samples, 2.54%)</title><rect x="1088.9" y="309" width="30.0" height="15.0" fill="rgb(224,90,21)" rx="2" ry="2" />
<text  x="1091.91" y="319.5" >ex..</text>
</g>
<g >
<title>[libc.so.6] (1,321,512,572 samples, 82.47%)</title><rect x="10.0" y="421" width="973.2" height="15.0" fill="rgb(223,84,20)" rx="2" ry="2" />
<text  x="13.00" y="431.5" >[libc.so.6]</text>
</g>
<g >
<title>execute_command_internal (18,525,923 samples, 1.16%)</title><rect x="1088.9" y="133" width="13.7" height="15.0" fill="rgb(248,202,48)" rx="2" ry="2" />
<text  x="1091.91" y="143.5" ></text>
</g>
<g >
<title>execute_command_internal (18,525,923 samples, 1.16%)</title><rect x="1088.9" y="117" width="13.7" height="15.0" fill="rgb(248,202,48)" rx="2" ry="2" />
<text  x="1091.91" y="127.5" ></text>
</g>
<g >
<title>[ld-linux-aarch64.so.1] (19,438,921 samples, 1.21%)</title><rect x="1161.3" y="389" width="14.3" height="15.0" fill="rgb(225,95,22)" rx="2" ry="2" />
<text  x="1164.33" y="399.5" ></text>
</g>
<g >
<title>invoke_syscall (584,851,341 samples, 36.50%)</title><rect x="538.2" y="277" width="430.7" height="15.0" fill="rgb(209,18,4)" rx="2" ry="2" />
<text  x="541.18" y="287.5" >invoke_syscall</text>
</g>
<g >
<title>fault_in_readable (126,074,584 samples, 7.87%)</title><rect x="809.0" y="149" width="92.9" height="15.0" fill="rgb(237,150,35)" rx="2" ry="2" />
<text  x="812.03" y="159.5" >fault_in_re..</text>
</g>
<g >
<title>execute_command_internal (18,525,923 samples, 1.16%)</title><rect x="1088.9" y="229" width="13.7" height="15.0" fill="rgb(248,202,48)" rx="2" ry="2" />
<text  x="1091.91" y="239.5" ></text>
</g>
<g >
<title>[ld-linux-aarch64.so.1] (13,224,702 samples, 0.83%)</title><rect x="997.5" y="453" width="9.7" height="15.0" fill="rgb(225,95,22)" rx="2" ry="2" />
<text  x="1000.46" y="463.5" ></text>
</g>
<g >
<title>[bash] (17,075,613 samples, 1.07%)</title><rect x="1068.1" y="277" width="12.6" height="15.0" fill="rgb(250,209,50)" rx="2" ry="2" />
<text  x="1071.09" y="287.5" ></text>
</g>
<g >
<title>make_child (12,476,229 samples, 0.78%)</title><rect x="1102.6" y="229" width="9.1" height="15.0" fill="rgb(242,170,40)" rx="2" ry="2" />
<text  x="1105.55" y="239.5" ></text>
</g>
<g >
<title>execute_command_internal (19,872,640 samples, 1.24%)</title><rect x="1142.5" y="453" width="14.6" height="15.0" fill="rgb(248,202,48)" rx="2" ry="2" />
<text  x="1145.45" y="463.5" ></text>
</g>
<g >
<title>execute_command_internal (40,773,612 samples, 2.54%)</title><rect x="1088.9" y="293" width="30.0" height="15.0" fill="rgb(248,202,48)" rx="2" ry="2" />
<text  x="1091.91" y="303.5" >ex..</text>
</g>
<g >
<title>[ld-linux-aarch64.so.1] (13,224,702 samples, 0.83%)</title><rect x="997.5" y="357" width="9.7" height="15.0" fill="rgb(225,95,22)" rx="2" ry="2" />
<text  x="1000.46" y="367.5" ></text>
</g>
<g >
<title>el0_svc (717,230,913 samples, 44.76%)</title><rect x="10.0" y="325" width="528.2" height="15.0" fill="rgb(244,183,43)" rx="2" ry="2" />
<text  x="13.00" y="335.5" >el0_svc</text>
</g>
<g >
<title>__libc_start_main (11,837,170 samples, 0.74%)</title><rect x="988.7" y="437" width="8.8" height="15.0" fill="rgb(236,142,34)" rx="2" ry="2" />
<text  x="991.74" y="447.5" ></text>
</g>
<g >
<title>[bash] (28,269,154 samples, 1.76%)</title><rect x="1068.1" y="325" width="20.8" height="15.0" fill="rgb(250,209,50)" rx="2" ry="2" />
<text  x="1071.09" y="335.5" ></text>
</g>
<g >
<title>el0t_64_sync (717,230,913 samples, 44.76%)</title><rect x="10.0" y="357" width="528.2" height="15.0" fill="rgb(217,56,13)" rx="2" ry="2" />
<text  x="13.00" y="367.5" >el0t_64_sync</text>
</g>
<g >
<title>execute_command (18,525,923 samples, 1.16%)</title><rect x="1088.9" y="213" width="13.7" height="15.0" fill="rgb(224,90,21)" rx="2" ry="2" />
<text  x="1091.91" y="223.5" ></text>
</g>
<g >
<title>mmput (23,223,769 samples, 1.45%)</title><rect x="1125.2" y="277" width="17.1" height="15.0" fill="rgb(226,99,23)" rx="2" ry="2" />
<text  x="1128.22" y="287.5" ></text>
</g>
<g >
<title>[ld-linux-aarch64.so.1] (19,438,921 samples, 1.21%)</title><rect x="1161.3" y="421" width="14.3" height="15.0" fill="rgb(225,95,22)" rx="2" ry="2" />
<text  x="1164.33" y="431.5" ></text>
</g>
<g >
<title>el0t_64_sync_handler (11,837,170 samples, 0.74%)</title><rect x="988.7" y="309" width="8.8" height="15.0" fill="rgb(211,32,7)" rx="2" ry="2" />
<text  x="991.74" y="319.5" ></text>
</g>
<g >
<title>__iomap_put_folio (20,018,693 samples, 1.25%)</title><rect x="546.1" y="149" width="14.7" height="15.0" fill="rgb(211,30,7)" rx="2" ry="2" />
<text  x="549.08" y="159.5" ></text>
</g>
<g >
<title>_raw_spin_unlock_irqrestore (20,732,334 samples, 1.29%)</title><rect x="901.9" y="101" width="15.2" height="15.0" fill="rgb(228,106,25)" rx="2" ry="2" />
<text  x="904.87" y="111.5" ></text>
</g>
<g >
<title>[bash] (28,269,154 samples, 1.76%)</title><rect x="1068.1" y="341" width="20.8" height="15.0" fill="rgb(250,209,50)" rx="2" ry="2" />
<text  x="1071.09" y="351.5" ></text>
</g>
<g >
<title>do_huge_pmd_anonymous_page (437,997,844 samples, 27.33%)</title><rect x="215.6" y="69" width="322.6" height="15.0" fill="rgb(242,172,41)" rx="2" ry="2" />
<text  x="218.63" y="79.5" >do_huge_pmd_anonymous_page</text>
</g>
<g >
<title>[ld-linux-aarch64.so.1] (12,964,163 samples, 0.81%)</title><rect x="1042.8" y="405" width="9.5" height="15.0" fill="rgb(225,95,22)" rx="2" ry="2" />
<text  x="1045.76" y="415.5" ></text>
</g>
<g >
<title>el0_da (11,193,541 samples, 0.70%)</title><rect x="1080.7" y="277" width="8.2" height="15.0" fill="rgb(217,55,13)" rx="2" ry="2" />
<text  x="1083.67" y="287.5" ></text>
</g>
<g >
<title>vm_mmap_pgoff (11,837,170 samples, 0.74%)</title><rect x="988.7" y="197" width="8.8" height="15.0" fill="rgb(237,150,35)" rx="2" ry="2" />
<text  x="991.74" y="207.5" ></text>
</g>
<g >
<title>__arm64_sys_read (717,230,913 samples, 44.76%)</title><rect x="10.0" y="261" width="528.2" height="15.0" fill="rgb(227,105,25)" rx="2" ry="2" />
<text  x="13.00" y="271.5" >__arm64_sys_read</text>
</g>
<g >
<title>el0t_64_sync_handler (13,224,702 samples, 0.83%)</title><rect x="997.5" y="325" width="9.7" height="15.0" fill="rgb(211,32,7)" rx="2" ry="2" />
<text  x="1000.46" y="335.5" ></text>
</g>
<g >
<title>ksys_mmap_pgoff (11,837,170 samples, 0.74%)</title><rect x="988.7" y="213" width="8.8" height="15.0" fill="rgb(245,185,44)" rx="2" ry="2" />
<text  x="991.74" y="223.5" ></text>
</g>
<g >
<title>[bash] (17,075,613 samples, 1.07%)</title><rect x="1068.1" y="245" width="12.6" height="15.0" fill="rgb(250,209,50)" rx="2" ry="2" />
<text  x="1071.09" y="255.5" ></text>
</g>
<g >
<title>execute_command_internal (18,525,923 samples, 1.16%)</title><rect x="1088.9" y="197" width="13.7" height="15.0" fill="rgb(248,202,48)" rx="2" ry="2" />
<text  x="1091.91" y="207.5" ></text>
</g>
<g >
<title>iomap_write_iter (503,872,802 samples, 31.45%)</title><rect x="546.1" y="165" width="371.0" height="15.0" fill="rgb(234,137,32)" rx="2" ry="2" />
<text  x="549.08" y="175.5" >iomap_write_iter</text>
</g>
<g >
<title>[ld-linux-aarch64.so.1] (20,272,800 samples, 1.27%)</title><rect x="1007.2" y="437" width="14.9" height="15.0" fill="rgb(225,95,22)" rx="2" ry="2" />
<text  x="1010.20" y="447.5" ></text>
</g>
<g >
<title>dirname (25,061,872 samples, 1.56%)</title><rect x="988.7" y="469" width="18.5" height="15.0" fill="rgb(209,18,4)" rx="2" ry="2" />
<text  x="991.74" y="479.5" ></text>
</g>
<g >
<title>dd (1,329,055,584 samples, 82.94%)</title><rect x="10.0" y="469" width="978.7" height="15.0" fill="rgb(221,76,18)" rx="2" ry="2" />
<text  x="13.00" y="479.5" >dd</text>
</g>
<g >
<title>invoke_syscall (13,224,702 samples, 0.83%)</title><rect x="997.5" y="261" width="9.7" height="15.0" fill="rgb(209,18,4)" rx="2" ry="2" />
<text  x="1000.46" y="271.5" ></text>
</g>
<g >
<title>do_mprotect_pkey (13,224,702 samples, 0.83%)</title><rect x="997.5" y="229" width="9.7" height="15.0" fill="rgb(252,218,52)" rx="2" ry="2" />
<text  x="1000.46" y="239.5" ></text>
</g>
<g >
<title>f2fs_buffered_write_iter (514,596,218 samples, 32.12%)</title><rect x="538.2" y="197" width="378.9" height="15.0" fill="rgb(243,174,41)" rx="2" ry="2" />
<text  x="541.18" y="207.5" >f2fs_buffered_write_iter</text>
</g>
<g >
<title>do_mem_abort (437,997,844 samples, 27.33%)</title><rect x="215.6" y="149" width="322.6" height="15.0" fill="rgb(249,206,49)" rx="2" ry="2" />
<text  x="218.63" y="159.5" >do_mem_abort</text>
</g>
<g >
<title>filemap_dirty_folio (20,732,334 samples, 1.29%)</title><rect x="901.9" y="117" width="15.2" height="15.0" fill="rgb(233,133,31)" rx="2" ry="2" />
<text  x="904.87" y="127.5" ></text>
</g>
<g >
<title>execute_command_internal (18,525,923 samples, 1.16%)</title><rect x="1088.9" y="165" width="13.7" height="15.0" fill="rgb(248,202,48)" rx="2" ry="2" />
<text  x="1091.91" y="175.5" ></text>
</g>
<g >
<title>[ld-linux-aarch64.so.1] (19,438,921 samples, 1.21%)</title><rect x="1161.3" y="453" width="14.3" height="15.0" fill="rgb(225,95,22)" rx="2" ry="2" />
<text  x="1164.33" y="463.5" ></text>
</g>
<g >
<title>[ld-linux-aarch64.so.1] (12,964,163 samples, 0.81%)</title><rect x="1042.8" y="437" width="9.5" height="15.0" fill="rgb(225,95,22)" rx="2" ry="2" />
<text  x="1045.76" y="447.5" ></text>
</g>
<g >
<title>ksys_write (584,851,341 samples, 36.50%)</title><rect x="538.2" y="245" width="430.7" height="15.0" fill="rgb(205,4,1)" rx="2" ry="2" />
<text  x="541.18" y="255.5" >ksys_write</text>
</g>
<g >
<title>[libc.so.6] (11,837,170 samples, 0.74%)</title><rect x="988.7" y="373" width="8.8" height="15.0" fill="rgb(223,84,20)" rx="2" ry="2" />
<text  x="991.74" y="383.5" ></text>
</g>
<g >
<title>el0_svc_common.constprop.0 (23,397,701 samples, 1.46%)</title><rect x="1125.2" y="389" width="17.3" height="15.0" fill="rgb(224,89,21)" rx="2" ry="2" />
<text  x="1128.22" y="399.5" ></text>
</g>
<g >
<title>do_el0_svc (584,851,341 samples, 36.50%)</title><rect x="538.2" y="309" width="430.7" height="15.0" fill="rgb(218,60,14)" rx="2" ry="2" />
<text  x="541.18" y="319.5" >do_el0_svc</text>
</g>
<g >
<title>__arm64_sys_write (584,851,341 samples, 36.50%)</title><rect x="538.2" y="261" width="430.7" height="15.0" fill="rgb(254,226,54)" rx="2" ry="2" />
<text  x="541.18" y="271.5" >__arm64_sys_write</text>
</g>
<g >
<title>[bash] (17,075,613 samples, 1.07%)</title><rect x="1068.1" y="293" width="12.6" height="15.0" fill="rgb(250,209,50)" rx="2" ry="2" />
<text  x="1071.09" y="303.5" ></text>
</g>
<g >
<title>[dirname] (11,837,170 samples, 0.74%)</title><rect x="988.7" y="453" width="8.8" height="15.0" fill="rgb(220,71,16)" rx="2" ry="2" />
<text  x="991.74" y="463.5" ></text>
</g>
<g >
<title>[ld-linux-aarch64.so.1] (13,224,702 samples, 0.83%)</title><rect x="997.5" y="405" width="9.7" height="15.0" fill="rgb(225,95,22)" rx="2" ry="2" />
<text  x="1000.46" y="415.5" ></text>
</g>
<g >
<title>execute_command_internal (22,247,689 samples, 1.39%)</title><rect x="1102.6" y="277" width="16.3" height="15.0" fill="rgb(248,202,48)" rx="2" ry="2" />
<text  x="1105.55" y="287.5" ></text>
</g>
<g >
<title>do_translation_fault (437,997,844 samples, 27.33%)</title><rect x="215.6" y="133" width="322.6" height="15.0" fill="rgb(239,158,37)" rx="2" ry="2" />
<text  x="218.63" y="143.5" >do_translation_fault</text>
</g>
<g >
<title>el0_svc (584,851,341 samples, 36.50%)</title><rect x="538.2" y="325" width="430.7" height="15.0" fill="rgb(244,183,43)" rx="2" ry="2" />
<text  x="541.18" y="335.5" >el0_svc</text>
</g>
<g >
<title>vfs_write (584,851,341 samples, 36.50%)</title><rect x="538.2" y="229" width="430.7" height="15.0" fill="rgb(250,209,50)" rx="2" ry="2" />
<text  x="541.18" y="239.5" >vfs_write</text>
</g>
<g >
<title>el0t_64_sync_handler (11,193,541 samples, 0.70%)</title><rect x="1080.7" y="293" width="8.2" height="15.0" fill="rgb(211,32,7)" rx="2" ry="2" />
<text  x="1083.67" y="303.5" ></text>
</g>
<g >
<title>__pi_clear_page (358,308,240 samples, 22.36%)</title><rect x="237.8" y="37" width="263.8" height="15.0" fill="rgb(236,144,34)" rx="2" ry="2" />
<text  x="240.78" y="47.5" >__pi_clear_page</text>
</g>
<g >
<title>do_el0_svc (23,397,701 samples, 1.46%)</title><rect x="1125.2" y="405" width="17.3" height="15.0" fill="rgb(218,60,14)" rx="2" ry="2" />
<text  x="1128.22" y="415.5" ></text>
</g>
<g >
<title>execute_command (40,773,612 samples, 2.54%)</title><rect x="1088.9" y="341" width="30.0" height="15.0" fill="rgb(224,90,21)" rx="2" ry="2" />
<text  x="1091.91" y="351.5" >ex..</text>
</g>
<g >
<title>mkdir (41,145,992 samples, 2.57%)</title><rect x="1007.2" y="469" width="30.3" height="15.0" fill="rgb(207,11,2)" rx="2" ry="2" />
<text  x="1010.20" y="479.5" >mk..</text>
</g>
<g >
<title>el0_svc (13,224,702 samples, 0.83%)</title><rect x="997.5" y="309" width="9.7" height="15.0" fill="rgb(244,183,43)" rx="2" ry="2" />
<text  x="1000.46" y="319.5" ></text>
</g>
<g >
<title>execute_command (69,042,766 samples, 4.31%)</title><rect x="1068.1" y="373" width="50.8" height="15.0" fill="rgb(224,90,21)" rx="2" ry="2" />
<text  x="1071.09" y="383.5" >execu..</text>
</g>
<g >
<title>change_protection (13,224,702 samples, 0.83%)</title><rect x="997.5" y="197" width="9.7" height="15.0" fill="rgb(209,22,5)" rx="2" ry="2" />
<text  x="1000.46" y="207.5" ></text>
</g>
<g >
<title>folio_zero_user (39,636,821 samples, 2.47%)</title><rect x="501.6" y="37" width="29.2" height="15.0" fill="rgb(235,140,33)" rx="2" ry="2" />
<text  x="504.64" y="47.5" >fo..</text>
</g>
<g >
<title>[ld-linux-aarch64.so.1] (13,498,969 samples, 0.84%)</title><rect x="1042.8" y="453" width="9.9" height="15.0" fill="rgb(225,95,22)" rx="2" ry="2" />
<text  x="1045.76" y="463.5" ></text>
</g>
<g >
<title>f2fs_iomap_put_folio (20,018,693 samples, 1.25%)</title><rect x="546.1" y="133" width="14.7" height="15.0" fill="rgb(241,168,40)" rx="2" ry="2" />
<text  x="549.08" y="143.5" ></text>
</g>
<g >
<title>invoke_syscall (11,837,170 samples, 0.74%)</title><rect x="988.7" y="245" width="8.8" height="15.0" fill="rgb(209,18,4)" rx="2" ry="2" />
<text  x="991.74" y="255.5" ></text>
</g>
<g >
<title>main (89,204,302 samples, 5.57%)</title><rect x="1059.5" y="405" width="65.7" height="15.0" fill="rgb(243,179,42)" rx="2" ry="2" />
<text  x="1062.53" y="415.5" >main</text>
</g>
<g >
<title>el1h_64_sync (458,019,188 samples, 28.58%)</title><rect x="200.9" y="197" width="337.3" height="15.0" fill="rgb(238,153,36)" rx="2" ry="2" />
<text  x="203.89" y="207.5" >el1h_64_sync</text>
</g>
<g >
<title>rw_test.sh (168,154,682 samples, 10.49%)</title><rect x="1037.5" y="469" width="123.8" height="15.0" fill="rgb(238,155,37)" rx="2" ry="2" />
<text  x="1040.50" y="479.5" >rw_test.sh</text>
</g>
<g >
<title>vfs_read (717,230,913 samples, 44.76%)</title><rect x="10.0" y="229" width="528.2" height="15.0" fill="rgb(224,88,21)" rx="2" ry="2" />
<text  x="13.00" y="239.5" >vfs_read</text>
</g>
<g >
<title>el1h_64_sync_handler (458,019,188 samples, 28.58%)</title><rect x="200.9" y="181" width="337.3" height="15.0" fill="rgb(233,129,30)" rx="2" ry="2" />
<text  x="203.89" y="191.5" >el1h_64_sync_handler</text>
</g>
<g >
<title>[libc.so.6] (89,204,302 samples, 5.57%)</title><rect x="1059.5" y="421" width="65.7" height="15.0" fill="rgb(223,84,20)" rx="2" ry="2" />
<text  x="1062.53" y="431.5" >[libc.s..</text>
</g>
<g >
<title>execute_command (18,525,923 samples, 1.16%)</title><rect x="1088.9" y="149" width="13.7" height="15.0" fill="rgb(224,90,21)" rx="2" ry="2" />
<text  x="1091.91" y="159.5" ></text>
</g>
<g >
<title>invoke_syscall (717,230,913 samples, 44.76%)</title><rect x="10.0" y="277" width="528.2" height="15.0" fill="rgb(209,18,4)" rx="2" ry="2" />
<text  x="13.00" y="287.5" >invoke_syscall</text>
</g>
<g >
<title>[libc.so.6] (11,837,170 samples, 0.74%)</title><rect x="988.7" y="357" width="8.8" height="15.0" fill="rgb(223,84,20)" rx="2" ry="2" />
<text  x="991.74" y="367.5" ></text>
</g>
<g >
<title>do_execveat_common.isra.0 (23,397,701 samples, 1.46%)</title><rect x="1125.2" y="341" width="17.3" height="15.0" fill="rgb(231,123,29)" rx="2" ry="2" />
<text  x="1128.22" y="351.5" ></text>
</g>
<g >
<title>el1_abort (458,019,188 samples, 28.58%)</title><rect x="200.9" y="165" width="337.3" height="15.0" fill="rgb(220,72,17)" rx="2" ry="2" />
<text  x="203.89" y="175.5" >el1_abort</text>
</g>
<g >
<title>el0_svc_common.constprop.0 (13,224,702 samples, 0.83%)</title><rect x="997.5" y="277" width="9.7" height="15.0" fill="rgb(224,89,21)" rx="2" ry="2" />
<text  x="1000.46" y="287.5" ></text>
</g>
<g >
<title>copy_folio_from_iter_atomic (316,937,816 samples, 19.78%)</title><rect x="575.6" y="149" width="233.4" height="15.0" fill="rgb(230,115,27)" rx="2" ry="2" />
<text  x="578.63" y="159.5" >copy_folio_from_iter_atomic</text>
</g>
<g >
<title>[dirname] (11,837,170 samples, 0.74%)</title><rect x="988.7" y="405" width="8.8" height="15.0" fill="rgb(220,71,16)" rx="2" ry="2" />
<text  x="991.74" y="415.5" ></text>
</g>
<g >
<title>do_mmap (11,837,170 samples, 0.74%)</title><rect x="988.7" y="181" width="8.8" height="15.0" fill="rgb(228,107,25)" rx="2" ry="2" />
<text  x="991.74" y="191.5" ></text>
</g>
<g >
<title>execute_command (18,525,923 samples, 1.16%)</title><rect x="1088.9" y="277" width="13.7" height="15.0" fill="rgb(224,90,21)" rx="2" ry="2" />
<text  x="1091.91" y="287.5" ></text>
</g>
<g >
<title>__mmput (23,223,769 samples, 1.45%)</title><rect x="1125.2" y="261" width="17.1" height="15.0" fill="rgb(249,203,48)" rx="2" ry="2" />
<text  x="1128.22" y="271.5" ></text>
</g>
<g >
<title>read (717,230,913 samples, 44.76%)</title><rect x="10.0" y="373" width="528.2" height="15.0" fill="rgb(252,216,51)" rx="2" ry="2" />
<text  x="13.00" y="383.5" >read</text>
</g>
<g >
<title>[ld-linux-aarch64.so.1] (13,224,702 samples, 0.83%)</title><rect x="997.5" y="437" width="9.7" height="15.0" fill="rgb(225,95,22)" rx="2" ry="2" />
<text  x="1000.46" y="447.5" ></text>
</g>
<g >
<title>f2fs_file_write_iter (584,851,341 samples, 36.50%)</title><rect x="538.2" y="213" width="430.7" height="15.0" fill="rgb(249,205,49)" rx="2" ry="2" />
<text  x="541.18" y="223.5" >f2fs_file_write_iter</text>
</g>
<g >
<title>iomap_file_buffered_write (514,596,218 samples, 32.12%)</title><rect x="538.2" y="181" width="378.9" height="15.0" fill="rgb(206,6,1)" rx="2" ry="2" />
<text  x="541.18" y="191.5" >iomap_file_buffered_write</text>
</g>
<g >
<title>__arm64_sys_execve (23,397,701 samples, 1.46%)</title><rect x="1125.2" y="357" width="17.3" height="15.0" fill="rgb(205,0,0)" rx="2" ry="2" />
<text  x="1128.22" y="367.5" ></text>
</g>
<g >
<title>do_el0_svc (13,224,702 samples, 0.83%)</title><rect x="997.5" y="293" width="9.7" height="15.0" fill="rgb(218,60,14)" rx="2" ry="2" />
<text  x="1000.46" y="303.5" ></text>
</g>
<g >
<title>el0t_64_sync (11,193,541 samples, 0.70%)</title><rect x="1080.7" y="309" width="8.2" height="15.0" fill="rgb(217,56,13)" rx="2" ry="2" />
<text  x="1083.67" y="319.5" ></text>
</g>
<g >
<title>[dd] (1,302,082,254 samples, 81.26%)</title><rect x="10.0" y="389" width="958.9" height="15.0" fill="rgb(232,128,30)" rx="2" ry="2" />
<text  x="13.00" y="399.5" >[dd]</text>
</g>
<g >
<title>[ld-linux-aarch64.so.1] (12,964,163 samples, 0.81%)</title><rect x="1042.8" y="421" width="9.5" height="15.0" fill="rgb(225,95,22)" rx="2" ry="2" />
<text  x="1045.76" y="431.5" ></text>
</g>
<g >
<title>command_substitute (12,962,697 samples, 0.81%)</title><rect x="1068.1" y="213" width="9.5" height="15.0" fill="rgb(242,172,41)" rx="2" ry="2" />
<text  x="1071.09" y="223.5" ></text>
</g>
<g >
<title>fault_in_readable (60,183,138 samples, 3.76%)</title><rect x="924.6" y="197" width="44.3" height="15.0" fill="rgb(237,150,35)" rx="2" ry="2" />
<text  x="927.56" y="207.5" >faul..</text>
</g>
<g >
<title>begin_new_exec (23,223,769 samples, 1.45%)</title><rect x="1125.2" y="293" width="17.1" height="15.0" fill="rgb(245,184,44)" rx="2" ry="2" />
<text  x="1128.22" y="303.5" ></text>
</g>
<g >
<title>invoke_syscall (23,397,701 samples, 1.46%)</title><rect x="1125.2" y="373" width="17.3" height="15.0" fill="rgb(209,18,4)" rx="2" ry="2" />
<text  x="1128.22" y="383.5" ></text>
</g>
<g >
<title>mprotect_fixup (13,224,702 samples, 0.83%)</title><rect x="997.5" y="213" width="9.7" height="15.0" fill="rgb(236,144,34)" rx="2" ry="2" />
<text  x="1000.46" y="223.5" ></text>
</g>
<g >
<title>handle_mm_fault (437,997,844 samples, 27.33%)</title><rect x="215.6" y="101" width="322.6" height="15.0" fill="rgb(234,135,32)" rx="2" ry="2" />
<text  x="218.63" y="111.5" >handle_mm_fault</text>
</g>
<g >
<title>[ld-linux-aarch64.so.1] (13,224,702 samples, 0.83%)</title><rect x="997.5" y="421" width="9.7" height="15.0" fill="rgb(225,95,22)" rx="2" ry="2" />
<text  x="1000.46" y="431.5" ></text>
</g>
<g >
<title>__libc_start_main (1,321,512,572 samples, 82.47%)</title><rect x="10.0" y="437" width="973.2" height="15.0" fill="rgb(236,142,34)" rx="2" ry="2" />
<text  x="13.00" y="447.5" >__libc_start_main</text>
</g>
<g >
<title>expand_string_assignment (17,075,613 samples, 1.07%)</title><rect x="1068.1" y="261" width="12.6" height="15.0" fill="rgb(235,141,33)" rx="2" ry="2" />
<text  x="1071.09" y="271.5" ></text>
</g>
<g >
<title>[ld-linux-aarch64.so.1] (19,438,921 samples, 1.21%)</title><rect x="1161.3" y="437" width="14.3" height="15.0" fill="rgb(225,95,22)" rx="2" ry="2" />
<text  x="1164.33" y="447.5" ></text>
</g>
<g >
<title>[dd] (1,321,512,572 samples, 82.47%)</title><rect x="10.0" y="453" width="973.2" height="15.0" fill="rgb(232,128,30)" rx="2" ry="2" />
<text  x="13.00" y="463.5" >[dd]</text>
</g>
<g >
<title>do_el0_svc (717,230,913 samples, 44.76%)</title><rect x="10.0" y="309" width="528.2" height="15.0" fill="rgb(218,60,14)" rx="2" ry="2" />
<text  x="13.00" y="319.5" >do_el0_svc</text>
</g>
<g >
<title>[ld-linux-aarch64.so.1] (13,224,702 samples, 0.83%)</title><rect x="997.5" y="373" width="9.7" height="15.0" fill="rgb(225,95,22)" rx="2" ry="2" />
<text  x="1000.46" y="383.5" ></text>
</g>
<g >
<title>all (1,602,348,868 samples, 100%)</title><rect x="10.0" y="485" width="1180.0" height="15.0" fill="rgb(213,39,9)" rx="2" ry="2" />
<text  x="13.00" y="495.5" ></text>
</g>
<g >
<title>el0t_64_sync (23,397,701 samples, 1.46%)</title><rect x="1125.2" y="453" width="17.3" height="15.0" fill="rgb(217,56,13)" rx="2" ry="2" />
<text  x="1128.22" y="463.5" ></text>
</g>
<g >
<title>up_write (11,837,170 samples, 0.74%)</title><rect x="988.7" y="133" width="8.8" height="15.0" fill="rgb(235,139,33)" rx="2" ry="2" />
<text  x="991.74" y="143.5" ></text>
</g>
<g >
<title>do_page_fault (437,997,844 samples, 27.33%)</title><rect x="215.6" y="117" width="322.6" height="15.0" fill="rgb(216,54,13)" rx="2" ry="2" />
<text  x="218.63" y="127.5" >do_page_fault</text>
</g>
<g >
<title>setlocale (11,837,170 samples, 0.74%)</title><rect x="988.7" y="389" width="8.8" height="15.0" fill="rgb(237,151,36)" rx="2" ry="2" />
<text  x="991.74" y="399.5" ></text>
</g>
<g >
<title>[ld-linux-aarch64.so.1] (19,438,921 samples, 1.21%)</title><rect x="1161.3" y="405" width="14.3" height="15.0" fill="rgb(225,95,22)" rx="2" ry="2" />
<text  x="1164.33" y="415.5" ></text>
</g>
<g >
<title>el0_svc (23,397,701 samples, 1.46%)</title><rect x="1125.2" y="421" width="17.3" height="15.0" fill="rgb(244,183,43)" rx="2" ry="2" />
<text  x="1128.22" y="431.5" ></text>
</g>
<g >
<title>[bash] (12,962,697 samples, 0.81%)</title><rect x="1068.1" y="229" width="9.5" height="15.0" fill="rgb(250,209,50)" rx="2" ry="2" />
<text  x="1071.09" y="239.5" ></text>
</g>
<g >
<title>execute_command_internal (40,773,612 samples, 2.54%)</title><rect x="1088.9" y="325" width="30.0" height="15.0" fill="rgb(248,202,48)" rx="2" ry="2" />
<text  x="1091.91" y="335.5" >ex..</text>
</g>
<g >
<title>ksys_read (717,230,913 samples, 44.76%)</title><rect x="10.0" y="245" width="528.2" height="15.0" fill="rgb(229,113,27)" rx="2" ry="2" />
<text  x="13.00" y="255.5" >ksys_read</text>
</g>
<g >
<title>el0_svc_common.constprop.0 (584,851,341 samples, 36.50%)</title><rect x="538.2" y="293" width="430.7" height="15.0" fill="rgb(224,89,21)" rx="2" ry="2" />
<text  x="541.18" y="303.5" >el0_svc_common.constprop.0</text>
</g>
<g >
<title>el0t_64_sync (11,837,170 samples, 0.74%)</title><rect x="988.7" y="325" width="8.8" height="15.0" fill="rgb(217,56,13)" rx="2" ry="2" />
<text  x="991.74" y="335.5" ></text>
</g>
<g >
<title>el0_svc_common.constprop.0 (11,837,170 samples, 0.74%)</title><rect x="988.7" y="261" width="8.8" height="15.0" fill="rgb(224,89,21)" rx="2" ry="2" />
<text  x="991.74" y="271.5" ></text>
</g>
<g >
<title>execute_command_internal (18,525,923 samples, 1.16%)</title><rect x="1088.9" y="261" width="13.7" height="15.0" fill="rgb(248,202,48)" rx="2" ry="2" />
<text  x="1091.91" y="271.5" ></text>
</g>
<g >
<title>mmap_region (11,837,170 samples, 0.74%)</title><rect x="988.7" y="165" width="8.8" height="15.0" fill="rgb(231,121,28)" rx="2" ry="2" />
<text  x="991.74" y="175.5" ></text>
</g>
<g >
<title>reader_loop (77,575,063 samples, 4.84%)</title><rect x="1068.1" y="389" width="57.1" height="15.0" fill="rgb(244,180,43)" rx="2" ry="2" />
<text  x="1071.09" y="399.5" >reader..</text>
</g>
<g >
<title>el0t_64_sync (13,224,702 samples, 0.83%)</title><rect x="997.5" y="341" width="9.7" height="15.0" fill="rgb(217,56,13)" rx="2" ry="2" />
<text  x="1000.46" y="351.5" ></text>
</g>
</g>
</svg>
