<?xml version="1.0" standalone="no"?>
<!DOCTYPE svg PUBLIC "-//W3C//DTD SVG 1.1//EN" "http://www.w3.org/Graphics/SVG/1.1/DTD/svg11.dtd">
<svg version="1.1" width="1200" height="534" onload="init(evt)" viewBox="0 0 1200 534" xmlns="http://www.w3.org/2000/svg" xmlns:xlink="http://www.w3.org/1999/xlink">
<!-- Flame graph stack visualization. See https://github.com/brendangregg/FlameGraph for latest version, and http://www.brendangregg.com/flamegraphs.html for examples. -->
<!-- NOTES:  -->
<defs>
	<linearGradient id="background" y1="0" y2="1" x1="0" x2="0" >
		<stop stop-color="#eeeeee" offset="5%" />
		<stop stop-color="#eeeeb0" offset="95%" />
	</linearGradient>
</defs>
<style type="text/css">
	text { font-family:Verdana; font-size:12px; fill:rgb(0,0,0); }
	#search, #ignorecase { opacity:0.1; cursor:pointer; }
	#search:hover, #search.show, #ignorecase:hover, #ignorecase.show { opacity:1; }
	#subtitle { text-anchor:middle; font-color:rgb(160,160,160); }
	#title { text-anchor:middle; font-size:17px}
	#unzoom { cursor:pointer; }
	#frames > *:hover { stroke:black; stroke-width:0.5; cursor:pointer; }
	.hide { display:none; }
	.parent { opacity:0.5; }
</style>
<script type="text/ecmascript">
<![CDATA[
	"use strict";
	var details, searchbtn, unzoombtn, matchedtxt, svg, searching, currentSearchTerm, ignorecase, ignorecaseBtn;
	function init(evt) {
		details = document.getElementById("details").firstChild;
		searchbtn = document.getElementById("search");
		ignorecaseBtn = document.getElementById("ignorecase");
		unzoombtn = document.getElementById("unzoom");
		matchedtxt = document.getElementById("matched");
		svg = document.getElementsByTagName("svg")[0];
		searching = 0;
		currentSearchTerm = null;

		// use GET parameters to restore a flamegraphs state.
		var params = get_params();
		if (params.x && params.y)
			zoom(find_group(document.querySelector('[x="' + params.x + '"][y="' + params.y + '"]')));
                if (params.s) search(params.s);
	}

	// event listeners
	window.addEventListener("click", function(e) {
		var target = find_group(e.target);
		if (target) {
			if (target.nodeName == "a") {
				if (e.ctrlKey === false) return;
				e.preventDefault();
			}
			if (target.classList.contains("parent")) unzoom(true);
			zoom(target);
			if (!document.querySelector('.parent')) {
				// we have basically done a clearzoom so clear the url
				var params = get_params();
				if (params.x) delete params.x;
				if (params.y) delete params.y;
				history.replaceState(null, null, parse_params(params));
				unzoombtn.classList.add("hide");
				return;
			}

			// set parameters for zoom state
			var el = target.querySelector("rect");
			if (el && el.attributes && el.attributes.y && el.attributes._orig_x) {
				var params = get_params()
				params.x = el.attributes._orig_x.value;
				params.y = el.attributes.y.value;
				history.replaceState(null, null, parse_params(params));
			}
		}
		else if (e.target.id == "unzoom") clearzoom();
		else if (e.target.id == "search") search_prompt();
		else if (e.target.id == "ignorecase") toggle_ignorecase();
	}, false)

	// mouse-over for info
	// show
	window.addEventListener("mouseover", function(e) {
		var target = find_group(e.target);
		if (target) details.nodeValue = "Function: " + g_to_text(target);
	}, false)

	// clear
	window.addEventListener("mouseout", function(e) {
		var target = find_group(e.target);
		if (target) details.nodeValue = ' ';
	}, false)

	// ctrl-F for search
	// ctrl-I to toggle case-sensitive search
	window.addEventListener("keydown",function (e) {
		if (e.keyCode === 114 || (e.ctrlKey && e.keyCode === 70)) {
			e.preventDefault();
			search_prompt();
		}
		else if (e.ctrlKey && e.keyCode === 73) {
			e.preventDefault();
			toggle_ignorecase();
		}
	}, false)

	// functions
	function get_params() {
		var params = {};
		var paramsarr = window.location.search.substr(1).split('&');
		for (var i = 0; i < paramsarr.length; ++i) {
			var tmp = paramsarr[i].split("=");
			if (!tmp[0] || !tmp[1]) continue;
			params[tmp[0]]  = decodeURIComponent(tmp[1]);
		}
		return params;
	}
	function parse_params(params) {
		var uri = "?";
		for (var key in params) {
			uri += key + '=' + encodeURIComponent(params[key]) + '&';
		}
		if (uri.slice(-1) == "&")
			uri = uri.substring(0, uri.length - 1);
		if (uri == '?')
			uri = window.location.href.split('?')[0];
		return uri;
	}
	function find_child(node, selector) {
		var children = node.querySelectorAll(selector);
		if (children.length) return children[0];
	}
	function find_group(node) {
		var parent = node.parentElement;
		if (!parent) return;
		if (parent.id == "frames") return node;
		return find_group(parent);
	}
	function orig_save(e, attr, val) {
		if (e.attributes["_orig_" + attr] != undefined) return;
		if (e.attributes[attr] == undefined) return;
		if (val == undefined) val = e.attributes[attr].value;
		e.setAttribute("_orig_" + attr, val);
	}
	function orig_load(e, attr) {
		if (e.attributes["_orig_"+attr] == undefined) return;
		e.attributes[attr].value = e.attributes["_orig_" + attr].value;
		e.removeAttribute("_orig_"+attr);
	}
	function g_to_text(e) {
		var text = find_child(e, "title").firstChild.nodeValue;
		return (text)
	}
	function g_to_func(e) {
		var func = g_to_text(e);
		// if there's any manipulation we want to do to the function
		// name before it's searched, do it here before returning.
		return (func);
	}
	function update_text(e) {
		var r = find_child(e, "rect");
		var t = find_child(e, "text");
		var w = parseFloat(r.attributes.width.value) -3;
		var txt = find_child(e, "title").textContent.replace(/\([^(]*\)$/,"");
		t.attributes.x.value = parseFloat(r.attributes.x.value) + 3;

		// Smaller than this size won't fit anything
		if (w < 2 * 12 * 0.59) {
			t.textContent = "";
			return;
		}

		t.textContent = txt;
		var sl = t.getSubStringLength(0, txt.length);
		// check if only whitespace or if we can fit the entire string into width w
		if (/^ *$/.test(txt) || sl < w)
			return;

		// this isn't perfect, but gives a good starting point
		// and avoids calling getSubStringLength too often
		var start = Math.floor((w/sl) * txt.length);
		for (var x = start; x > 0; x = x-2) {
			if (t.getSubStringLength(0, x + 2) <= w) {
				t.textContent = txt.substring(0, x) + "..";
				return;
			}
		}
		t.textContent = "";
	}

	// zoom
	function zoom_reset(e) {
		if (e.attributes != undefined) {
			orig_load(e, "x");
			orig_load(e, "width");
		}
		if (e.childNodes == undefined) return;
		for (var i = 0, c = e.childNodes; i < c.length; i++) {
			zoom_reset(c[i]);
		}
	}
	function zoom_child(e, x, ratio) {
		if (e.attributes != undefined) {
			if (e.attributes.x != undefined) {
				orig_save(e, "x");
				e.attributes.x.value = (parseFloat(e.attributes.x.value) - x - 10) * ratio + 10;
				if (e.tagName == "text")
					e.attributes.x.value = find_child(e.parentNode, "rect[x]").attributes.x.value + 3;
			}
			if (e.attributes.width != undefined) {
				orig_save(e, "width");
				e.attributes.width.value = parseFloat(e.attributes.width.value) * ratio;
			}
		}

		if (e.childNodes == undefined) return;
		for (var i = 0, c = e.childNodes; i < c.length; i++) {
			zoom_child(c[i], x - 10, ratio);
		}
	}
	function zoom_parent(e) {
		if (e.attributes) {
			if (e.attributes.x != undefined) {
				orig_save(e, "x");
				e.attributes.x.value = 10;
			}
			if (e.attributes.width != undefined) {
				orig_save(e, "width");
				e.attributes.width.value = parseInt(svg.width.baseVal.value) - (10 * 2);
			}
		}
		if (e.childNodes == undefined) return;
		for (var i = 0, c = e.childNodes; i < c.length; i++) {
			zoom_parent(c[i]);
		}
	}
	function zoom(node) {
		var attr = find_child(node, "rect").attributes;
		var width = parseFloat(attr.width.value);
		var xmin = parseFloat(attr.x.value);
		var xmax = parseFloat(xmin + width);
		var ymin = parseFloat(attr.y.value);
		var ratio = (svg.width.baseVal.value - 2 * 10) / width;

		// XXX: Workaround for JavaScript float issues (fix me)
		var fudge = 0.0001;

		unzoombtn.classList.remove("hide");

		var el = document.getElementById("frames").children;
		for (var i = 0; i < el.length; i++) {
			var e = el[i];
			var a = find_child(e, "rect").attributes;
			var ex = parseFloat(a.x.value);
			var ew = parseFloat(a.width.value);
			var upstack;
			// Is it an ancestor
			if (0 == 0) {
				upstack = parseFloat(a.y.value) > ymin;
			} else {
				upstack = parseFloat(a.y.value) < ymin;
			}
			if (upstack) {
				// Direct ancestor
				if (ex <= xmin && (ex+ew+fudge) >= xmax) {
					e.classList.add("parent");
					zoom_parent(e);
					update_text(e);
				}
				// not in current path
				else
					e.classList.add("hide");
			}
			// Children maybe
			else {
				// no common path
				if (ex < xmin || ex + fudge >= xmax) {
					e.classList.add("hide");
				}
				else {
					zoom_child(e, xmin, ratio);
					update_text(e);
				}
			}
		}
		search();
	}
	function unzoom(dont_update_text) {
		unzoombtn.classList.add("hide");
		var el = document.getElementById("frames").children;
		for(var i = 0; i < el.length; i++) {
			el[i].classList.remove("parent");
			el[i].classList.remove("hide");
			zoom_reset(el[i]);
			if(!dont_update_text) update_text(el[i]);
		}
		search();
	}
	function clearzoom() {
		unzoom();

		// remove zoom state
		var params = get_params();
		if (params.x) delete params.x;
		if (params.y) delete params.y;
		history.replaceState(null, null, parse_params(params));
	}

	// search
	function toggle_ignorecase() {
		ignorecase = !ignorecase;
		if (ignorecase) {
			ignorecaseBtn.classList.add("show");
		} else {
			ignorecaseBtn.classList.remove("show");
		}
		reset_search();
		search();
	}
	function reset_search() {
		var el = document.querySelectorAll("#frames rect");
		for (var i = 0; i < el.length; i++) {
			orig_load(el[i], "fill")
		}
		var params = get_params();
		delete params.s;
		history.replaceState(null, null, parse_params(params));
	}
	function search_prompt() {
		if (!searching) {
			var term = prompt("Enter a search term (regexp " +
			    "allowed, eg: ^ext4_)"
			    + (ignorecase ? ", ignoring case" : "")
			    + "\nPress Ctrl-i to toggle case sensitivity", "");
			if (term != null) search(term);
		} else {
			reset_search();
			searching = 0;
			currentSearchTerm = null;
			searchbtn.classList.remove("show");
			searchbtn.firstChild.nodeValue = "Search"
			matchedtxt.classList.add("hide");
			matchedtxt.firstChild.nodeValue = ""
		}
	}
	function search(term) {
		if (term) currentSearchTerm = term;
		if (currentSearchTerm === null) return;

		var re = new RegExp(currentSearchTerm, ignorecase ? 'i' : '');
		var el = document.getElementById("frames").children;
		var matches = new Object();
		var maxwidth = 0;
		for (var i = 0; i < el.length; i++) {
			var e = el[i];
			var func = g_to_func(e);
			var rect = find_child(e, "rect");
			if (func == null || rect == null)
				continue;

			// Save max width. Only works as we have a root frame
			var w = parseFloat(rect.attributes.width.value);
			if (w > maxwidth)
				maxwidth = w;

			if (func.match(re)) {
				// highlight
				var x = parseFloat(rect.attributes.x.value);
				orig_save(rect, "fill");
				rect.attributes.fill.value = "rgb(230,0,230)";

				// remember matches
				if (matches[x] == undefined) {
					matches[x] = w;
				} else {
					if (w > matches[x]) {
						// overwrite with parent
						matches[x] = w;
					}
				}
				searching = 1;
			}
		}
		if (!searching)
			return;
		var params = get_params();
		params.s = currentSearchTerm;
		history.replaceState(null, null, parse_params(params));

		searchbtn.classList.add("show");
		searchbtn.firstChild.nodeValue = "Reset Search";

		// calculate percent matched, excluding vertical overlap
		var count = 0;
		var lastx = -1;
		var lastw = 0;
		var keys = Array();
		for (k in matches) {
			if (matches.hasOwnProperty(k))
				keys.push(k);
		}
		// sort the matched frames by their x location
		// ascending, then width descending
		keys.sort(function(a, b){
			return a - b;
		});
		// Step through frames saving only the biggest bottom-up frames
		// thanks to the sort order. This relies on the tree property
		// where children are always smaller than their parents.
		var fudge = 0.0001;	// JavaScript floating point
		for (var k in keys) {
			var x = parseFloat(keys[k]);
			var w = matches[keys[k]];
			if (x >= lastx + lastw - fudge) {
				count += w;
				lastx = x;
				lastw = w;
			}
		}
		// display matched percent
		matchedtxt.classList.remove("hide");
		var pct = 100 * count / maxwidth;
		if (pct != 100) pct = pct.toFixed(1)
		matchedtxt.firstChild.nodeValue = "Matched: " + pct + "%";
	}
]]>
</script>
<rect x="0.0" y="0" width="1200.0" height="534.0" fill="url(#background)"  />
<text id="title" x="600.00" y="24" >Flame Graph</text>
<text id="details" x="10.00" y="517" > </text>
<text id="unzoom" x="10.00" y="24" class="hide">Reset Zoom</text>
<text id="search" x="1090.00" y="24" >Search</text>
<text id="ignorecase" x="1174.00" y="24" >ic</text>
<text id="matched" x="1090.00" y="517" > </text>
<g id="frames">
<g >
<title>el0t_64_sync_handler (1,787,602,587 samples, 55.57%)</title><rect x="420.2" y="341" width="655.7" height="15.0" fill="rgb(211,32,7)" rx="2" ry="2" />
<text  x="423.15" y="351.5" >el0t_64_sync_handler</text>
</g>
<g >
<title>handle_mm_fault (585,471,425 samples, 18.20%)</title><rect x="205.4" y="101" width="214.8" height="15.0" fill="rgb(234,135,32)" rx="2" ry="2" />
<text  x="208.38" y="111.5" >handle_mm_fault</text>
</g>
<g >
<title>copy_page_from_iter_atomic (59,996,216 samples, 1.87%)</title><rect x="588.8" y="165" width="22.0" height="15.0" fill="rgb(231,120,28)" rx="2" ry="2" />
<text  x="591.78" y="175.5" >c..</text>
</g>
<g >
<title>[dd] (2,914,247,445 samples, 90.60%)</title><rect x="10.0" y="453" width="1069.1" height="15.0" fill="rgb(232,128,30)" rx="2" ry="2" />
<text  x="13.00" y="463.5" >[dd]</text>
</g>
<g >
<title>do_el0_svc (1,787,602,587 samples, 55.57%)</title><rect x="420.2" y="309" width="655.7" height="15.0" fill="rgb(218,60,14)" rx="2" ry="2" />
<text  x="423.15" y="319.5" >do_el0_svc</text>
</g>
<g >
<title>__filemap_get_folio (639,914,621 samples, 19.89%)</title><rect x="625.5" y="149" width="234.7" height="15.0" fill="rgb(231,120,28)" rx="2" ry="2" />
<text  x="628.47" y="159.5" >__filemap_get_folio</text>
</g>
<g >
<title>write (1,787,602,587 samples, 55.57%)</title><rect x="420.2" y="373" width="655.7" height="15.0" fill="rgb(228,107,25)" rx="2" ry="2" />
<text  x="423.15" y="383.5" >write</text>
</g>
<g >
<title>execute_command (39,359,041 samples, 1.22%)</title><rect x="1125.7" y="245" width="14.4" height="15.0" fill="rgb(224,90,21)" rx="2" ry="2" />
<text  x="1128.68" y="255.5" ></text>
</g>
<g >
<title>[bash] (42,048,034 samples, 1.31%)</title><rect x="1110.3" y="341" width="15.4" height="15.0" fill="rgb(250,209,50)" rx="2" ry="2" />
<text  x="1113.25" y="351.5" ></text>
</g>
<g >
<title>f2fs_map_blocks (55,394,911 samples, 1.72%)</title><rect x="1033.6" y="181" width="20.3" height="15.0" fill="rgb(226,100,23)" rx="2" ry="2" />
<text  x="1036.59" y="191.5" ></text>
</g>
<g >
<title>do_execveat_common.isra.0 (26,044,018 samples, 0.81%)</title><rect x="1153.9" y="341" width="9.6" height="15.0" fill="rgb(231,123,29)" rx="2" ry="2" />
<text  x="1156.92" y="351.5" ></text>
</g>
<g >
<title>execute_command (98,610,771 samples, 3.07%)</title><rect x="1110.3" y="373" width="36.1" height="15.0" fill="rgb(224,90,21)" rx="2" ry="2" />
<text  x="1113.25" y="383.5" >exe..</text>
</g>
<g >
<title>command_substitute (30,762,861 samples, 0.96%)</title><rect x="1110.3" y="213" width="11.2" height="15.0" fill="rgb(242,172,41)" rx="2" ry="2" />
<text  x="1113.25" y="223.5" ></text>
</g>
<g >
<title>[dd] (2,906,002,149 samples, 90.34%)</title><rect x="13.0" y="405" width="1066.1" height="15.0" fill="rgb(232,128,30)" rx="2" ry="2" />
<text  x="16.02" y="415.5" >[dd]</text>
</g>
<g >
<title>[libc.so.6] (2,906,002,149 samples, 90.34%)</title><rect x="13.0" y="421" width="1066.1" height="15.0" fill="rgb(223,84,20)" rx="2" ry="2" />
<text  x="16.02" y="431.5" >[libc.so.6]</text>
</g>
<g >
<title>do_huge_pmd_anonymous_page (585,471,425 samples, 18.20%)</title><rect x="205.4" y="69" width="214.8" height="15.0" fill="rgb(242,172,41)" rx="2" ry="2" />
<text  x="208.38" y="79.5" >do_huge_pmd_anonymous_page</text>
</g>
<g >
<title>execute_command (54,444,937 samples, 1.69%)</title><rect x="1125.7" y="309" width="20.0" height="15.0" fill="rgb(224,90,21)" rx="2" ry="2" />
<text  x="1128.68" y="319.5" ></text>
</g>
<g >
<title>read (1,100,967,420 samples, 34.23%)</title><rect x="16.3" y="373" width="403.9" height="15.0" fill="rgb(252,216,51)" rx="2" ry="2" />
<text  x="19.27" y="383.5" >read</text>
</g>
<g >
<title>__alloc_frozen_pages_noprof (129,750,159 samples, 4.03%)</title><rect x="812.6" y="69" width="47.6" height="15.0" fill="rgb(228,109,26)" rx="2" ry="2" />
<text  x="815.62" y="79.5" >__al..</text>
</g>
<g >
<title>execute_command_internal (54,444,937 samples, 1.69%)</title><rect x="1125.7" y="293" width="20.0" height="15.0" fill="rgb(248,202,48)" rx="2" ry="2" />
<text  x="1128.68" y="303.5" ></text>
</g>
<g >
<title>el0_svc_common.constprop.0 (26,044,018 samples, 0.81%)</title><rect x="1153.9" y="389" width="9.6" height="15.0" fill="rgb(224,89,21)" rx="2" ry="2" />
<text  x="1156.92" y="399.5" ></text>
</g>
<g >
<title>generic_perform_write (1,649,710,188 samples, 51.29%)</title><rect x="423.8" y="181" width="605.2" height="15.0" fill="rgb(236,146,35)" rx="2" ry="2" />
<text  x="426.84" y="191.5" >generic_perform_write</text>
</g>
<g >
<title>__mem_cgroup_charge (140,082,446 samples, 4.35%)</title><rect x="640.1" y="117" width="51.4" height="15.0" fill="rgb(218,60,14)" rx="2" ry="2" />
<text  x="643.10" y="127.5" >__mem..</text>
</g>
<g >
<title>do_mem_abort (585,471,425 samples, 18.20%)</title><rect x="205.4" y="149" width="214.8" height="15.0" fill="rgb(249,206,49)" rx="2" ry="2" />
<text  x="208.38" y="159.5" >do_mem_abort</text>
</g>
<g >
<title>__libc_start_main (118,923,055 samples, 3.70%)</title><rect x="1108.9" y="437" width="43.6" height="15.0" fill="rgb(236,142,34)" rx="2" ry="2" />
<text  x="1111.91" y="447.5" >__li..</text>
</g>
<g >
<title>f2fs_file_write_iter (1,787,602,587 samples, 55.57%)</title><rect x="420.2" y="213" width="655.7" height="15.0" fill="rgb(249,205,49)" rx="2" ry="2" />
<text  x="423.15" y="223.5" >f2fs_file_write_iter</text>
</g>
<g >
<title>filemap_add_folio (460,210,084 samples, 14.31%)</title><rect x="632.8" y="133" width="168.8" height="15.0" fill="rgb(207,9,2)" rx="2" ry="2" />
<text  x="635.78" y="143.5" >filemap_add_folio</text>
</g>
<g >
<title>execute_command_internal (39,359,041 samples, 1.22%)</title><rect x="1125.7" y="229" width="14.4" height="15.0" fill="rgb(248,202,48)" rx="2" ry="2" />
<text  x="1128.68" y="239.5" ></text>
</g>
<g >
<title>[bash] (30,762,861 samples, 0.96%)</title><rect x="1110.3" y="277" width="11.2" height="15.0" fill="rgb(250,209,50)" rx="2" ry="2" />
<text  x="1113.25" y="287.5" ></text>
</g>
<g >
<title>[bash] (30,762,861 samples, 0.96%)</title><rect x="1110.3" y="229" width="11.2" height="15.0" fill="rgb(250,209,50)" rx="2" ry="2" />
<text  x="1113.25" y="239.5" ></text>
</g>
<g >
<title>filemap_alloc_folio_noprof (159,779,726 samples, 4.97%)</title><rect x="801.6" y="133" width="58.6" height="15.0" fill="rgb(219,68,16)" rx="2" ry="2" />
<text  x="804.60" y="143.5" >filema..</text>
</g>
<g >
<title>execute_command_internal (30,739,864 samples, 0.96%)</title><rect x="1163.5" y="453" width="11.3" height="15.0" fill="rgb(248,202,48)" rx="2" ry="2" />
<text  x="1166.48" y="463.5" ></text>
</g>
<g >
<title>load_elf_binary (26,044,018 samples, 0.81%)</title><rect x="1153.9" y="309" width="9.6" height="15.0" fill="rgb(223,83,20)" rx="2" ry="2" />
<text  x="1156.92" y="319.5" ></text>
</g>
<g >
<title>do_translation_fault (585,471,425 samples, 18.20%)</title><rect x="205.4" y="133" width="214.8" height="15.0" fill="rgb(239,158,37)" rx="2" ry="2" />
<text  x="208.38" y="143.5" >do_translation_fault</text>
</g>
<g >
<title>execute_command_internal (22,226,457 samples, 0.69%)</title><rect x="1163.5" y="373" width="8.1" height="15.0" fill="rgb(248,202,48)" rx="2" ry="2" />
<text  x="1166.48" y="383.5" ></text>
</g>
<g >
<title>[bash] (30,762,861 samples, 0.96%)</title><rect x="1110.3" y="293" width="11.2" height="15.0" fill="rgb(250,209,50)" rx="2" ry="2" />
<text  x="1113.25" y="303.5" ></text>
</g>
<g >
<title>vfs_read (1,100,967,420 samples, 34.23%)</title><rect x="16.3" y="229" width="403.9" height="15.0" fill="rgb(224,88,21)" rx="2" ry="2" />
<text  x="19.27" y="239.5" >vfs_read</text>
</g>
<g >
<title>el0_svc (1,100,967,420 samples, 34.23%)</title><rect x="16.3" y="325" width="403.9" height="15.0" fill="rgb(244,183,43)" rx="2" ry="2" />
<text  x="19.27" y="335.5" >el0_svc</text>
</g>
<g >
<title>main (118,923,055 samples, 3.70%)</title><rect x="1108.9" y="405" width="43.6" height="15.0" fill="rgb(243,179,42)" rx="2" ry="2" />
<text  x="1111.91" y="415.5" >main</text>
</g>
<g >
<title>ksys_write (1,787,602,587 samples, 55.57%)</title><rect x="420.2" y="245" width="655.7" height="15.0" fill="rgb(205,4,1)" rx="2" ry="2" />
<text  x="423.15" y="255.5" >ksys_write</text>
</g>
<g >
<title>do_page_fault (585,471,425 samples, 18.20%)</title><rect x="205.4" y="117" width="214.8" height="15.0" fill="rgb(216,54,13)" rx="2" ry="2" />
<text  x="208.38" y="127.5" >do_page_fault</text>
</g>
<g >
<title>folio_alloc_noprof (159,779,726 samples, 4.97%)</title><rect x="801.6" y="117" width="58.6" height="15.0" fill="rgb(225,92,22)" rx="2" ry="2" />
<text  x="804.60" y="127.5" >folio_..</text>
</g>
<g >
<title>el0t_64_sync (1,787,602,587 samples, 55.57%)</title><rect x="420.2" y="357" width="655.7" height="15.0" fill="rgb(217,56,13)" rx="2" ry="2" />
<text  x="423.15" y="367.5" >el0t_64_sync</text>
</g>
<g >
<title>folio_mark_dirty (399,939,579 samples, 12.43%)</title><rect x="878.6" y="149" width="146.8" height="15.0" fill="rgb(217,55,13)" rx="2" ry="2" />
<text  x="881.64" y="159.5" >folio_mark_dirty</text>
</g>
<g >
<title>__arm64_sys_write (1,787,602,587 samples, 55.57%)</title><rect x="420.2" y="261" width="655.7" height="15.0" fill="rgb(254,226,54)" rx="2" ry="2" />
<text  x="423.15" y="271.5" >__arm64_sys_write</text>
</g>
<g >
<title>try_charge_memcg (90,058,114 samples, 2.80%)</title><rect x="651.1" y="85" width="33.0" height="15.0" fill="rgb(210,27,6)" rx="2" ry="2" />
<text  x="654.10" y="95.5" >tr..</text>
</g>
<g >
<title>[bash] (35,976,585 samples, 1.12%)</title><rect x="1110.3" y="325" width="13.2" height="15.0" fill="rgb(250,209,50)" rx="2" ry="2" />
<text  x="1113.25" y="335.5" ></text>
</g>
<g >
<title>fault_in_readable (50,067,901 samples, 1.56%)</title><rect x="1053.9" y="181" width="18.4" height="15.0" fill="rgb(237,150,35)" rx="2" ry="2" />
<text  x="1056.91" y="191.5" ></text>
</g>
<g >
<title>[bash] (30,762,861 samples, 0.96%)</title><rect x="1110.3" y="245" width="11.2" height="15.0" fill="rgb(250,209,50)" rx="2" ry="2" />
<text  x="1113.25" y="255.5" ></text>
</g>
<g >
<title>execute_command (22,226,457 samples, 0.69%)</title><rect x="1163.5" y="405" width="8.1" height="15.0" fill="rgb(224,90,21)" rx="2" ry="2" />
<text  x="1166.48" y="415.5" ></text>
</g>
<g >
<title>bprm_execve (26,044,018 samples, 0.81%)</title><rect x="1153.9" y="325" width="9.6" height="15.0" fill="rgb(218,61,14)" rx="2" ry="2" />
<text  x="1156.92" y="335.5" ></text>
</g>
<g >
<title>el0_svc_common.constprop.0 (1,100,967,420 samples, 34.23%)</title><rect x="16.3" y="293" width="403.9" height="15.0" fill="rgb(224,89,21)" rx="2" ry="2" />
<text  x="19.27" y="303.5" >el0_svc_common.constprop.0</text>
</g>
<g >
<title>_start (118,923,055 samples, 3.70%)</title><rect x="1108.9" y="453" width="43.6" height="15.0" fill="rgb(245,185,44)" rx="2" ry="2" />
<text  x="1111.91" y="463.5" >_start</text>
</g>
<g >
<title>ksys_read (1,100,967,420 samples, 34.23%)</title><rect x="16.3" y="245" width="403.9" height="15.0" fill="rgb(229,113,27)" rx="2" ry="2" />
<text  x="19.27" y="255.5" >ksys_read</text>
</g>
<g >
<title>all (3,216,645,694 samples, 100%)</title><rect x="10.0" y="485" width="1180.0" height="15.0" fill="rgb(213,39,9)" rx="2" ry="2" />
<text  x="13.00" y="495.5" ></text>
</g>
<g >
<title>execute_command (39,359,041 samples, 1.22%)</title><rect x="1125.7" y="213" width="14.4" height="15.0" fill="rgb(224,90,21)" rx="2" ry="2" />
<text  x="1128.68" y="223.5" ></text>
</g>
<g >
<title>[bash] (30,762,861 samples, 0.96%)</title><rect x="1110.3" y="309" width="11.2" height="15.0" fill="rgb(250,209,50)" rx="2" ry="2" />
<text  x="1113.25" y="319.5" ></text>
</g>
<g >
<title>__arm64_sys_read (1,100,967,420 samples, 34.23%)</title><rect x="16.3" y="261" width="403.9" height="15.0" fill="rgb(227,105,25)" rx="2" ry="2" />
<text  x="19.27" y="271.5" >__arm64_sys_read</text>
</g>
<g >
<title>balance_dirty_pages_ratelimited (119,686,837 samples, 3.72%)</title><rect x="544.9" y="165" width="43.9" height="15.0" fill="rgb(212,34,8)" rx="2" ry="2" />
<text  x="547.87" y="175.5" >bala..</text>
</g>
<g >
<title>execute_command_internal (22,226,457 samples, 0.69%)</title><rect x="1163.5" y="389" width="8.1" height="15.0" fill="rgb(248,202,48)" rx="2" ry="2" />
<text  x="1166.48" y="399.5" ></text>
</g>
<g >
<title>__arm64_sys_execve (26,044,018 samples, 0.81%)</title><rect x="1153.9" y="357" width="9.6" height="15.0" fill="rgb(205,0,0)" rx="2" ry="2" />
<text  x="1156.92" y="367.5" ></text>
</g>
<g >
<title>__pi_clear_page (535,820,009 samples, 16.66%)</title><rect x="216.3" y="37" width="196.6" height="15.0" fill="rgb(236,144,34)" rx="2" ry="2" />
<text  x="219.29" y="47.5" >__pi_clear_page</text>
</g>
<g >
<title>rw_test.sh (206,931,313 samples, 6.43%)</title><rect x="1102.6" y="469" width="75.9" height="15.0" fill="rgb(238,155,37)" rx="2" ry="2" />
<text  x="1105.58" y="479.5" >rw_test.sh</text>
</g>
<g >
<title>execute_command_internal (29,688,607 samples, 0.92%)</title><rect x="1125.7" y="165" width="10.9" height="15.0" fill="rgb(248,202,48)" rx="2" ry="2" />
<text  x="1128.68" y="175.5" ></text>
</g>
<g >
<title>f2fs_dirty_data_folio (399,939,579 samples, 12.43%)</title><rect x="878.6" y="133" width="146.8" height="15.0" fill="rgb(229,113,27)" rx="2" ry="2" />
<text  x="881.64" y="143.5" >f2fs_dirty_data_fo..</text>
</g>
<g >
<title>execute_command (22,226,457 samples, 0.69%)</title><rect x="1163.5" y="437" width="8.1" height="15.0" fill="rgb(224,90,21)" rx="2" ry="2" />
<text  x="1166.48" y="447.5" ></text>
</g>
<g >
<title>__libc_start_main (2,906,002,149 samples, 90.34%)</title><rect x="13.0" y="437" width="1066.1" height="15.0" fill="rgb(236,142,34)" rx="2" ry="2" />
<text  x="16.02" y="447.5" >__libc_start_main</text>
</g>
<g >
<title>percpu_ref_put_many.constprop.0 (29,864,671 samples, 0.93%)</title><rect x="563.2" y="133" width="10.9" height="15.0" fill="rgb(227,103,24)" rx="2" ry="2" />
<text  x="566.19" y="143.5" ></text>
</g>
<g >
<title>el0_svc (26,044,018 samples, 0.81%)</title><rect x="1153.9" y="421" width="9.6" height="15.0" fill="rgb(244,183,43)" rx="2" ry="2" />
<text  x="1156.92" y="431.5" ></text>
</g>
<g >
<title>f2fs_buffered_write_iter (1,659,756,752 samples, 51.60%)</title><rect x="420.2" y="197" width="608.8" height="15.0" fill="rgb(243,174,41)" rx="2" ry="2" />
<text  x="423.15" y="207.5" >f2fs_buffered_write_iter</text>
</g>
<g >
<title>dd (2,932,671,292 samples, 91.17%)</title><rect x="10.0" y="469" width="1075.8" height="15.0" fill="rgb(221,76,18)" rx="2" ry="2" />
<text  x="13.00" y="479.5" >dd</text>
</g>
<g >
<title>expand_string_assignment (30,762,861 samples, 0.96%)</title><rect x="1110.3" y="261" width="11.2" height="15.0" fill="rgb(235,141,33)" rx="2" ry="2" />
<text  x="1113.25" y="271.5" ></text>
</g>
<g >
<title>el0t_64_sync_handler (26,044,018 samples, 0.81%)</title><rect x="1153.9" y="437" width="9.6" height="15.0" fill="rgb(211,32,7)" rx="2" ry="2" />
<text  x="1156.92" y="447.5" ></text>
</g>
<g >
<title>f2fs_preallocate_blocks (117,905,931 samples, 3.67%)</title><rect x="1029.0" y="197" width="43.3" height="15.0" fill="rgb(211,31,7)" rx="2" ry="2" />
<text  x="1032.02" y="207.5" >f2fs..</text>
</g>
<g >
<title>[libc.so.6] (118,923,055 samples, 3.70%)</title><rect x="1108.9" y="421" width="43.6" height="15.0" fill="rgb(223,84,20)" rx="2" ry="2" />
<text  x="1111.91" y="431.5" >[lib..</text>
</g>
<g >
<title>execute_command (56,562,737 samples, 1.76%)</title><rect x="1125.7" y="341" width="20.7" height="15.0" fill="rgb(224,90,21)" rx="2" ry="2" />
<text  x="1128.68" y="351.5" ></text>
</g>
<g >
<title>_raw_spin_unlock_irqrestore (359,907,389 samples, 11.19%)</title><rect x="893.3" y="101" width="132.1" height="15.0" fill="rgb(228,106,25)" rx="2" ry="2" />
<text  x="896.32" y="111.5" >_raw_spin_unlock..</text>
</g>
<g >
<title>do_el0_svc (1,100,967,420 samples, 34.23%)</title><rect x="16.3" y="309" width="403.9" height="15.0" fill="rgb(218,60,14)" rx="2" ry="2" />
<text  x="19.27" y="319.5" >do_el0_svc</text>
</g>
<g >
<title>f2fs_write_begin (700,357,033 samples, 21.77%)</title><rect x="614.5" y="165" width="256.9" height="15.0" fill="rgb(227,103,24)" rx="2" ry="2" />
<text  x="617.46" y="175.5" >f2fs_write_begin</text>
</g>
<g >
<title>invoke_syscall (26,044,018 samples, 0.81%)</title><rect x="1153.9" y="373" width="9.6" height="15.0" fill="rgb(209,18,4)" rx="2" ry="2" />
<text  x="1156.92" y="383.5" ></text>
</g>
<g >
<title>el1h_64_sync (615,532,305 samples, 19.14%)</title><rect x="194.4" y="197" width="225.8" height="15.0" fill="rgb(238,153,36)" rx="2" ry="2" />
<text  x="197.35" y="207.5" >el1h_64_sync</text>
</g>
<g >
<title>f2fs_write_end (419,732,577 samples, 13.05%)</title><rect x="871.4" y="165" width="154.0" height="15.0" fill="rgb(208,14,3)" rx="2" ry="2" />
<text  x="874.38" y="175.5" >f2fs_write_end</text>
</g>
<g >
<title>execute_command (29,688,607 samples, 0.92%)</title><rect x="1125.7" y="181" width="10.9" height="15.0" fill="rgb(224,90,21)" rx="2" ry="2" />
<text  x="1128.68" y="191.5" ></text>
</g>
<g >
<title>alloc_frozen_pages_noprof (159,779,726 samples, 4.97%)</title><rect x="801.6" y="101" width="58.6" height="15.0" fill="rgb(206,5,1)" rx="2" ry="2" />
<text  x="804.60" y="111.5" >alloc_..</text>
</g>
<g >
<title>el0t_64_sync (26,044,018 samples, 0.81%)</title><rect x="1153.9" y="453" width="9.6" height="15.0" fill="rgb(217,56,13)" rx="2" ry="2" />
<text  x="1156.92" y="463.5" ></text>
</g>
<g >
<title>execute_command_internal (22,226,457 samples, 0.69%)</title><rect x="1163.5" y="421" width="8.1" height="15.0" fill="rgb(248,202,48)" rx="2" ry="2" />
<text  x="1166.48" y="431.5" ></text>
</g>
<g >
<title>get_page_from_freelist (89,714,348 samples, 2.79%)</title><rect x="827.3" y="53" width="32.9" height="15.0" fill="rgb(252,218,52)" rx="2" ry="2" />
<text  x="830.31" y="63.5" >ge..</text>
</g>
<g >
<title>__folio_batch_add_and_move (90,064,329 samples, 2.80%)</title><rect x="768.6" y="101" width="33.0" height="15.0" fill="rgb(254,227,54)" rx="2" ry="2" />
<text  x="771.56" y="111.5" >__..</text>
</g>
<g >
<title>el0t_64_sync (1,100,967,420 samples, 34.23%)</title><rect x="16.3" y="357" width="403.9" height="15.0" fill="rgb(217,56,13)" rx="2" ry="2" />
<text  x="19.27" y="367.5" >el0t_64_sync</text>
</g>
<g >
<title>invoke_syscall (1,100,967,420 samples, 34.23%)</title><rect x="16.3" y="277" width="403.9" height="15.0" fill="rgb(209,18,4)" rx="2" ry="2" />
<text  x="19.27" y="287.5" >invoke_syscall</text>
</g>
<g >
<title>mkdir (26,905,472 samples, 0.84%)</title><rect x="1092.2" y="469" width="9.9" height="15.0" fill="rgb(207,11,2)" rx="2" ry="2" />
<text  x="1095.20" y="479.5" ></text>
</g>
<g >
<title>_raw_spin_unlock_irq (210,111,850 samples, 6.53%)</title><rect x="691.5" y="117" width="77.1" height="15.0" fill="rgb(215,47,11)" rx="2" ry="2" />
<text  x="694.49" y="127.5" >_raw_spi..</text>
</g>
<g >
<title>execute_command_internal (39,359,041 samples, 1.22%)</title><rect x="1125.7" y="197" width="14.4" height="15.0" fill="rgb(248,202,48)" rx="2" ry="2" />
<text  x="1128.68" y="207.5" ></text>
</g>
<g >
<title>execute_command_internal (29,688,607 samples, 0.92%)</title><rect x="1125.7" y="133" width="10.9" height="15.0" fill="rgb(248,202,48)" rx="2" ry="2" />
<text  x="1128.68" y="143.5" ></text>
</g>
<g >
<title>folio_add_lru (90,064,329 samples, 2.80%)</title><rect x="768.6" y="117" width="33.0" height="15.0" fill="rgb(208,17,4)" rx="2" ry="2" />
<text  x="771.56" y="127.5" >fo..</text>
</g>
<g >
<title>balance_dirty_pages_ratelimited_flags (89,691,733 samples, 2.79%)</title><rect x="544.9" y="149" width="32.9" height="15.0" fill="rgb(207,10,2)" rx="2" ry="2" />
<text  x="547.87" y="159.5" >ba..</text>
</g>
<g >
<title>el0t_64_sync_handler (1,100,967,420 samples, 34.23%)</title><rect x="16.3" y="341" width="403.9" height="15.0" fill="rgb(211,32,7)" rx="2" ry="2" />
<text  x="19.27" y="351.5" >el0t_64_sync_handler</text>
</g>
<g >
<title>execute_command (39,359,041 samples, 1.22%)</title><rect x="1125.7" y="277" width="14.4" height="15.0" fill="rgb(224,90,21)" rx="2" ry="2" />
<text  x="1128.68" y="287.5" ></text>
</g>
<g >
<title>alloc_pages_mpol (149,750,618 samples, 4.66%)</title><rect x="805.3" y="85" width="54.9" height="15.0" fill="rgb(254,227,54)" rx="2" ry="2" />
<text  x="808.28" y="95.5" >alloc..</text>
</g>
<g >
<title>stat (31,366,499 samples, 0.98%)</title><rect x="1178.5" y="469" width="11.5" height="15.0" fill="rgb(245,185,44)" rx="2" ry="2" />
<text  x="1181.49" y="479.5" ></text>
</g>
<g >
<title>do_el0_svc (26,044,018 samples, 0.81%)</title><rect x="1153.9" y="405" width="9.6" height="15.0" fill="rgb(218,60,14)" rx="2" ry="2" />
<text  x="1156.92" y="415.5" ></text>
</g>
<g >
<title>el0_svc (1,787,602,587 samples, 55.57%)</title><rect x="420.2" y="325" width="655.7" height="15.0" fill="rgb(244,183,43)" rx="2" ry="2" />
<text  x="423.15" y="335.5" >el0_svc</text>
</g>
<g >
<title>__arch_clear_user (1,100,967,420 samples, 34.23%)</title><rect x="16.3" y="213" width="403.9" height="15.0" fill="rgb(244,180,43)" rx="2" ry="2" />
<text  x="19.27" y="223.5" >__arch_clear_user</text>
</g>
<g >
<title>[dd] (2,897,426,418 samples, 90.08%)</title><rect x="13.0" y="389" width="1062.9" height="15.0" fill="rgb(232,128,30)" rx="2" ry="2" />
<text  x="16.02" y="399.5" >[dd]</text>
</g>
<g >
<title>vfs_write (1,787,602,587 samples, 55.57%)</title><rect x="420.2" y="229" width="655.7" height="15.0" fill="rgb(250,209,50)" rx="2" ry="2" />
<text  x="423.15" y="239.5" >vfs_write</text>
</g>
<g >
<title>reader_loop (106,715,246 samples, 3.32%)</title><rect x="1110.3" y="389" width="39.1" height="15.0" fill="rgb(244,180,43)" rx="2" ry="2" />
<text  x="1113.25" y="399.5" >rea..</text>
</g>
<g >
<title>vma_alloc_anon_folio_pmd (565,619,298 samples, 17.58%)</title><rect x="212.7" y="53" width="207.5" height="15.0" fill="rgb(229,114,27)" rx="2" ry="2" />
<text  x="215.66" y="63.5" >vma_alloc_anon_folio_pmd</text>
</g>
<g >
<title>__handle_mm_fault (585,471,425 samples, 18.20%)</title><rect x="205.4" y="85" width="214.8" height="15.0" fill="rgb(207,9,2)" rx="2" ry="2" />
<text  x="208.38" y="95.5" >__handle_mm_fault</text>
</g>
<g >
<title>_raw_spin_unlock_irqrestore (80,098,644 samples, 2.49%)</title><rect x="768.6" y="85" width="29.3" height="15.0" fill="rgb(228,106,25)" rx="2" ry="2" />
<text  x="771.56" y="95.5" >_r..</text>
</g>
<g >
<title>el0_svc_common.constprop.0 (1,787,602,587 samples, 55.57%)</title><rect x="420.2" y="293" width="655.7" height="15.0" fill="rgb(224,89,21)" rx="2" ry="2" />
<text  x="423.15" y="303.5" >el0_svc_common.constprop.0</text>
</g>
<g >
<title>charge_memcg (100,036,427 samples, 3.11%)</title><rect x="647.4" y="101" width="36.7" height="15.0" fill="rgb(242,170,40)" rx="2" ry="2" />
<text  x="650.44" y="111.5" >cha..</text>
</g>
<g >
<title>el1h_64_sync_handler (615,532,305 samples, 19.14%)</title><rect x="194.4" y="181" width="225.8" height="15.0" fill="rgb(233,129,30)" rx="2" ry="2" />
<text  x="197.35" y="191.5" >el1h_64_sync_handler</text>
</g>
<g >
<title>filemap_dirty_folio (379,916,084 samples, 11.81%)</title><rect x="886.0" y="117" width="139.4" height="15.0" fill="rgb(233,133,31)" rx="2" ry="2" />
<text  x="888.98" y="127.5" >filemap_dirty_folio</text>
</g>
<g >
<title>el1_abort (615,532,305 samples, 19.14%)</title><rect x="194.4" y="165" width="225.8" height="15.0" fill="rgb(220,72,17)" rx="2" ry="2" />
<text  x="197.35" y="175.5" >el1_abort</text>
</g>
<g >
<title>invoke_syscall (1,787,602,587 samples, 55.57%)</title><rect x="420.2" y="277" width="655.7" height="15.0" fill="rgb(209,18,4)" rx="2" ry="2" />
<text  x="423.15" y="287.5" >invoke_syscall</text>
</g>
<g >
<title>execute_command_internal (98,610,771 samples, 3.07%)</title><rect x="1110.3" y="357" width="36.1" height="15.0" fill="rgb(248,202,48)" rx="2" ry="2" />
<text  x="1113.25" y="367.5" >exe..</text>
</g>
<g >
<title>__arch_copy_from_user (289,971,616 samples, 9.01%)</title><rect x="431.2" y="165" width="106.4" height="15.0" fill="rgb(254,229,54)" rx="2" ry="2" />
<text  x="434.19" y="175.5" >__arch_copy_f..</text>
</g>
<g >
<title>execute_command (29,688,607 samples, 0.92%)</title><rect x="1125.7" y="149" width="10.9" height="15.0" fill="rgb(224,90,21)" rx="2" ry="2" />
<text  x="1128.68" y="159.5" ></text>
</g>
<g >
<title>execute_command_internal (39,359,041 samples, 1.22%)</title><rect x="1125.7" y="261" width="14.4" height="15.0" fill="rgb(248,202,48)" rx="2" ry="2" />
<text  x="1128.68" y="271.5" ></text>
</g>
<g >
<title>execute_command_internal (56,562,737 samples, 1.76%)</title><rect x="1125.7" y="325" width="20.7" height="15.0" fill="rgb(248,202,48)" rx="2" ry="2" />
<text  x="1128.68" y="335.5" ></text>
</g>
</g>
</svg>
